<svg width="226" height="67" viewBox="0 0 226 67" fill="none" xmlns="http://www.w3.org/2000/svg">
<path d="M224.033 58.9341C224.033 59.7752 223.867 60.6081 223.545 61.3851C223.223 62.1621 222.751 62.868 222.156 63.4624C221.561 64.0568 220.854 64.528 220.077 64.8492C219.299 65.1703 218.466 65.3351 217.625 65.3341H7.90504C6.20544 65.3362 4.57459 64.6631 3.3712 63.4629C2.16781 62.2627 1.49042 60.6337 1.48804 58.9341V7.89506C1.49069 6.19481 2.1679 4.56508 3.371 3.36367C4.57411 2.16225 6.20478 1.48732 7.90504 1.48706H217.626C218.468 1.48706 219.301 1.65281 220.078 1.97484C220.856 2.29687 221.562 2.76888 222.157 3.36392C222.752 3.95896 223.224 4.66537 223.546 5.44283C223.868 6.22028 224.034 7.05355 224.034 7.89506V58.9341H224.033Z" fill="white"/>
<path d="M217.624 66.823H7.9C5.80704 66.823 3.79961 65.9925 2.31845 64.5137C0.837283 63.035 0.00344411 61.029 0 58.936L0 7.9C0.00264612 5.8056 0.835815 3.79774 2.31678 2.31678C3.79774 0.835815 5.8056 0.00264612 7.9 0L217.623 0C219.717 0.0034376 221.725 0.836861 223.205 2.31765C224.686 3.79845 225.52 5.80585 225.523 7.9V58.934C225.52 61.0273 224.686 63.0339 223.205 64.513C221.724 65.9922 219.716 66.823 217.623 66.823H217.624Z" fill="#A6A6A6"/>
<path d="M224.033 58.9341C224.033 59.7752 223.867 60.6081 223.545 61.3851C223.223 62.1621 222.751 62.868 222.156 63.4624C221.561 64.0568 220.854 64.528 220.077 64.8492C219.299 65.1703 218.466 65.3351 217.625 65.3341H7.90504C6.20544 65.3362 4.57459 64.6631 3.3712 63.4629C2.16781 62.2627 1.49042 60.6337 1.48804 58.9341V7.89506C1.49069 6.19481 2.1679 4.56508 3.371 3.36367C4.57411 2.16225 6.20478 1.48732 7.90504 1.48706H217.626C218.468 1.48706 219.301 1.65281 220.078 1.97484C220.856 2.29687 221.562 2.76888 222.157 3.36392C222.752 3.95896 223.224 4.66537 223.546 5.44283C223.868 6.22028 224.034 7.05355 224.034 7.89506V58.9341H224.033Z" fill="black"/>
<path d="M50.358 33.06C50.3791 31.4259 50.8133 29.8237 51.6203 28.4025C52.4272 26.9814 53.5806 25.7875 54.973 24.932C54.088 23.6691 52.9208 22.6299 51.5641 21.8966C50.2074 21.1634 48.6984 20.7565 47.157 20.708C43.869 20.362 40.68 22.675 39.005 22.675C37.297 22.675 34.718 20.742 31.938 20.798C30.141 20.8558 28.3897 21.3781 26.8546 22.3141C25.3196 23.2502 24.0532 24.568 23.179 26.139C19.391 32.695 22.216 42.328 25.845 47.627C27.66 50.227 29.781 53.12 32.558 53.018C35.274 52.908 36.289 51.288 39.567 51.288C42.815 51.288 43.767 53.018 46.599 52.952C49.514 52.907 51.349 50.345 53.099 47.727C54.4039 45.8788 55.4077 43.8354 56.073 41.673C54.3807 40.9561 52.9365 39.7573 51.9202 38.2259C50.9039 36.6945 50.3603 34.898 50.357 33.06H50.358ZM45.01 17.222C46.5996 15.3155 47.3827 12.8641 47.193 10.389C44.7656 10.6446 42.5233 11.8045 40.912 13.638C40.1243 14.5338 39.521 15.5762 39.1367 16.7055C38.7523 17.8347 38.5944 19.0287 38.672 20.219C39.8864 20.2316 41.0878 19.9684 42.1856 19.4493C43.2835 18.9301 44.2492 18.1686 45.01 17.222Z" fill="white"/>
<path d="M217.624 0H105.292L149.292 66.823H217.624C219.717 66.8204 221.724 65.988 223.205 64.5083C224.686 63.0287 225.52 61.0224 225.524 58.929V7.9C225.521 5.80576 224.687 3.79821 223.207 2.31736C221.726 0.836512 219.718 0.00317389 217.624 0Z" fill="url(#paint0_linear_6_1998)"/>
<path d="M89.7 52.644H85.9L83.821 46.112H76.593L74.612 52.644H70.912L78.074 30.406H82.509L89.703 52.644H89.7ZM83.2 43.371L81.32 37.564C81.12 36.9707 80.746 35.5743 80.198 33.375H80.131C79.9103 34.321 79.5583 35.7173 79.075 37.564L77.226 43.371H83.2ZM108.085 44.429C108.215 46.7913 107.417 49.111 105.862 50.894C105.235 51.5774 104.47 52.1192 103.618 52.4834C102.765 52.8476 101.845 53.0258 100.918 53.006C100.02 53.0797 99.1187 52.9069 98.3116 52.5062C97.5045 52.1055 96.8221 51.492 96.338 50.732V59.146H92.774V41.879C92.774 40.1663 92.73 38.4097 92.642 36.609H95.776L95.976 39.151H96.043C96.583 38.3242 97.3087 37.635 98.1622 37.1383C99.0156 36.6416 99.9733 36.351 100.959 36.2898C101.945 36.2287 102.931 36.3985 103.839 36.7859C104.748 37.1732 105.553 37.7674 106.191 38.521C107.513 40.1982 108.184 42.2961 108.083 44.429H108.085ZM104.455 44.559C104.511 43.1935 104.142 41.8442 103.399 40.697C103.055 40.1961 102.591 39.7891 102.05 39.5129C101.508 39.2366 100.907 39.0999 100.299 39.115C99.4235 39.1146 98.5761 39.4243 97.907 39.989C97.1931 40.5723 96.6993 41.3814 96.507 42.283C96.4094 42.6369 96.354 43.0011 96.342 43.368V46.043C96.313 47.128 96.6964 48.1836 97.415 48.997C97.7627 49.39 98.1929 49.7013 98.6748 49.9087C99.1568 50.1162 99.6786 50.2146 100.203 50.197C100.813 50.2212 101.42 50.0918 101.968 49.8209C102.515 49.5499 102.986 49.146 103.337 48.646C104.132 47.437 104.523 46.0065 104.452 44.561L104.455 44.559ZM126.534 44.429C126.664 46.7913 125.866 49.111 124.311 50.894C123.684 51.5775 122.919 52.1194 122.066 52.4835C121.213 52.8477 120.292 53.0259 119.365 53.006C118.467 53.0797 117.566 52.9069 116.759 52.5062C115.952 52.1055 115.269 51.492 114.785 50.732V59.146H111.219V41.879C111.219 40.1663 111.175 38.4097 111.087 36.609H114.221L114.421 39.151H114.488C115.028 38.3242 115.754 37.635 116.607 37.1383C117.461 36.6416 118.419 36.351 119.404 36.2898C120.39 36.2287 121.376 36.3985 122.285 36.7859C123.193 37.1732 123.999 37.7674 124.637 38.521C125.961 40.1977 126.636 42.2959 126.537 44.43L126.534 44.429ZM122.902 44.559C122.957 43.1933 122.587 41.844 121.844 40.697C121.5 40.1957 121.036 39.7884 120.495 39.5121C119.954 39.2358 119.352 39.0993 118.744 39.115C117.866 39.1141 117.016 39.4237 116.344 39.989C115.63 40.5721 115.136 41.3813 114.944 42.283C114.847 42.637 114.791 43.0011 114.777 43.368V46.043C114.749 47.1275 115.131 48.1827 115.848 48.997C116.196 49.39 116.627 49.7013 117.109 49.9087C117.592 50.1161 118.114 50.2146 118.639 50.197C119.249 50.2215 119.856 50.0924 120.404 49.8214C120.951 49.5504 121.422 49.1462 121.773 48.646C122.572 47.4383 122.967 46.0077 122.899 44.561L122.902 44.559ZM147.16 46.406C147.188 47.2738 147.026 48.1372 146.684 48.9354C146.343 49.7336 145.83 50.4472 145.183 51.026C143.479 52.4111 141.316 53.106 139.124 52.973C137.111 53.0694 135.113 52.5889 133.364 51.588L134.188 48.619C135.745 49.5426 137.526 50.0223 139.336 50.006C140.454 50.074 141.561 49.7536 142.47 49.099C142.834 48.8114 143.126 48.4423 143.321 48.0214C143.516 47.6006 143.61 47.1398 143.595 46.676C143.604 46.2533 143.526 45.8332 143.367 45.4414C143.208 45.0497 142.97 44.6947 142.669 44.398C141.775 43.6211 140.73 43.0376 139.6 42.684C135.705 41.232 133.757 39.1087 133.756 36.314C133.736 35.4584 133.911 34.6095 134.269 33.832C134.626 33.0544 135.156 32.3687 135.819 31.827C137.368 30.6017 139.309 29.9799 141.281 30.077C143.025 30.0159 144.758 30.3782 146.331 31.133L145.437 34.033C144.121 33.3373 142.651 32.9854 141.163 33.01C140.1 32.9464 139.051 33.2752 138.214 33.934C137.929 34.1858 137.701 34.4961 137.547 34.8439C137.393 35.1916 137.315 35.5686 137.32 35.949C137.313 36.3662 137.401 36.7794 137.579 37.1569C137.757 37.5343 138.019 37.8659 138.345 38.126C139.325 38.8656 140.416 39.4442 141.578 39.84C143.176 40.4016 144.622 41.3257 145.802 42.54C146.722 43.6101 147.207 44.9865 147.161 46.397L147.16 46.406ZM158.972 39.282H155.044V47.067C155.044 49.047 155.737 50.0363 157.123 50.035C157.656 50.0476 158.187 49.9921 158.706 49.87L158.806 52.575C157.912 52.8666 156.975 53 156.035 52.969C155.425 53.0028 154.814 52.9054 154.245 52.6832C153.676 52.461 153.161 52.1192 152.735 51.681C151.944 50.8223 151.548 49.3813 151.547 47.358V39.276H149.207V36.602H151.547V33.666L155.047 32.61V36.602H158.975L158.972 39.282ZM176.66 44.494C176.746 46.7117 175.992 48.8802 174.547 50.565C173.805 51.3757 172.895 52.0143 171.88 52.436C170.866 52.8577 169.771 53.0523 168.673 53.006C167.621 53.0528 166.571 52.8675 165.598 52.4633C164.626 52.0591 163.754 51.4458 163.045 50.667C161.621 49.0366 160.87 46.9255 160.945 44.762C160.857 42.5261 161.632 40.3419 163.109 38.661C163.85 37.8661 164.755 37.2419 165.761 36.8317C166.767 36.4214 167.851 36.2349 168.936 36.285C169.995 36.2421 171.051 36.4293 172.031 36.8338C173.01 37.2383 173.891 37.8504 174.611 38.628C176.018 40.2514 176.75 42.351 176.659 44.497L176.66 44.494ZM172.966 44.576C173.003 43.2511 172.673 41.9418 172.012 40.793C171.71 40.2077 171.25 39.7186 170.685 39.381C170.119 39.0435 169.47 38.871 168.812 38.883C168.143 38.8641 167.482 39.033 166.905 39.3706C166.327 39.7082 165.856 40.201 165.544 40.793C164.876 41.9635 164.545 43.296 164.588 44.643C164.55 45.9689 164.881 47.2793 165.544 48.428C165.859 49.0085 166.326 49.4926 166.895 49.8289C167.464 50.1652 168.113 50.341 168.774 50.3377C169.434 50.3344 170.082 50.1521 170.647 49.8102C171.212 49.4683 171.674 48.9796 171.984 48.396C172.661 47.239 173.002 45.9161 172.968 44.576H172.966ZM188.248 39.742C187.877 39.6746 187.502 39.6412 187.125 39.642C186.56 39.6149 185.997 39.7308 185.489 39.9788C184.981 40.2268 184.543 40.599 184.217 41.061C183.595 41.9971 183.284 43.1052 183.328 44.228V52.642H179.764V41.661C179.764 39.9777 179.731 38.295 179.664 36.613H182.764L182.894 39.681H182.994C183.332 38.6801 183.95 37.7977 184.776 37.139C185.52 36.5826 186.423 36.2813 187.352 36.28C187.65 36.2784 187.948 36.3002 188.243 36.345L188.248 39.742ZM204.186 43.868C204.195 44.4096 204.152 44.9508 204.056 45.484H193.362C193.338 46.1663 193.464 46.8455 193.733 47.4734C194.001 48.1013 194.404 48.6624 194.913 49.117C195.909 49.8958 197.15 50.293 198.413 50.237C199.89 50.257 201.357 50.0002 202.739 49.48L203.297 51.951C201.592 52.648 199.761 52.9854 197.92 52.942C196.845 53.0009 195.769 52.8366 194.761 52.4593C193.752 52.0821 192.833 51.5001 192.06 50.75C191.332 49.959 190.768 49.0309 190.402 48.0198C190.036 47.0087 189.876 45.9349 189.929 44.861C189.851 42.6773 190.553 40.5372 191.911 38.825C192.578 37.9863 193.434 37.3165 194.408 36.8697C195.382 36.4229 196.448 36.2116 197.519 36.253C198.541 36.1964 199.561 36.4031 200.48 36.8535C201.399 37.3038 202.187 37.9827 202.769 38.825C203.75 40.3196 204.244 42.0813 204.183 43.868H204.186ZM200.786 42.944C200.834 41.9824 200.593 41.0284 200.094 40.205C199.8 39.7231 199.381 39.3302 198.881 39.0682C198.381 38.8063 197.819 38.6852 197.256 38.718C196.7 38.7081 196.151 38.8355 195.656 39.0888C195.161 39.342 194.737 39.7134 194.42 40.17C193.813 40.9751 193.447 41.936 193.365 42.941H200.786V42.944Z" fill="white"/>
<path d="M75.5701 22.544C74.7143 22.5489 73.8589 22.5055 73.0081 22.414V11.662C74.0063 11.5079 75.015 11.432 76.0251 11.435C80.1121 11.435 81.994 13.445 81.994 16.722C81.993 20.502 79.7701 22.544 75.5701 22.544ZM76.17 12.814C75.6971 12.8053 75.2245 12.8434 74.759 12.928V21.101C75.152 21.1423 75.5471 21.1583 75.942 21.149C78.62 21.149 80.142 19.625 80.142 16.771C80.143 14.225 78.764 12.813 76.168 12.813L76.17 12.814ZM87.86 22.626C87.3368 22.6346 86.8175 22.5335 86.3356 22.3294C85.8538 22.1253 85.4199 21.8226 85.062 21.4408C84.7041 21.0589 84.4301 20.6065 84.2576 20.1124C84.085 19.6183 84.0177 19.0936 84.06 18.572C84.0135 18.0335 84.0813 17.4912 84.2588 16.9807C84.4364 16.4702 84.7197 16.0029 85.0903 15.6094C85.4609 15.216 85.9104 14.9052 86.4095 14.6975C86.9085 14.4898 87.4457 14.3898 87.9861 14.404C88.5092 14.3911 89.0292 14.4887 89.5121 14.6904C89.995 14.8921 90.4299 15.1933 90.7885 15.5745C91.1471 15.9556 91.4213 16.4081 91.5932 16.9024C91.7651 17.3967 91.8308 17.9216 91.7861 18.443C91.8313 18.9821 91.7627 19.5246 91.5849 20.0355C91.407 20.5463 91.1237 21.0141 90.7535 21.4085C90.3832 21.8029 89.9343 22.115 89.4356 22.3248C88.937 22.5345 88.3999 22.6372 87.8591 22.626H87.86ZM87.927 15.684C86.662 15.684 85.851 16.867 85.851 18.521C85.851 20.144 86.678 21.327 87.91 21.327C89.142 21.327 89.9691 20.062 89.9691 18.488C89.9681 16.884 89.157 15.684 87.925 15.684H87.927ZM104.921 14.566L102.456 22.447H100.85L99.8291 19.025C99.5749 18.1879 99.3633 17.3385 99.1951 16.48H99.162C99.017 17.3433 98.8057 18.1942 98.53 19.025L97.444 22.447H95.821L93.5011 14.566H95.3011L96.194 18.312C96.4047 19.2047 96.583 20.048 96.729 20.842H96.7621C96.8911 20.179 97.1011 19.35 97.4111 18.329L98.5311 14.567H99.9581L101.029 18.248C101.288 19.14 101.499 20.016 101.662 20.848H101.709C101.836 19.9717 102.015 19.1035 102.244 18.248L103.201 14.568H104.921V14.566ZM113.997 22.447H112.245V17.922C112.245 16.528 111.71 15.83 110.655 15.83C110.412 15.8385 110.174 15.8956 109.953 15.9978C109.733 16.1 109.535 16.2454 109.372 16.4253C109.208 16.6052 109.083 16.816 109.002 17.0452C108.922 17.2745 108.888 17.5175 108.903 17.76V22.447H107.151V16.819C107.151 16.119 107.134 15.375 107.086 14.565H108.627L108.709 15.782H108.757C109.015 15.3517 109.382 14.9975 109.821 14.7556C110.26 14.5136 110.756 14.3927 111.257 14.405C112.912 14.405 113.998 15.67 113.998 17.729V22.448L113.997 22.447ZM118.828 22.447H117.075V10.947H118.828V22.447ZM125.215 22.626C124.692 22.6344 124.173 22.5333 123.691 22.3291C123.209 22.1249 122.775 21.8222 122.417 21.4404C122.06 21.0586 121.785 20.6062 121.613 20.1122C121.44 19.6182 121.373 19.0936 121.415 18.572C121.368 18.0336 121.436 17.4913 121.613 16.9808C121.791 16.4703 122.074 16.003 122.445 15.6095C122.815 15.216 123.265 14.9052 123.764 14.6975C124.263 14.4898 124.8 14.3898 125.34 14.404C125.863 14.391 126.383 14.4885 126.866 14.6901C127.349 14.8917 127.784 15.1929 128.143 15.5741C128.501 15.9553 128.776 16.4078 128.947 16.9022C129.119 17.3965 129.185 17.9216 129.14 18.443C129.185 18.9821 129.117 19.5247 128.939 20.0356C128.761 20.5466 128.478 21.0144 128.108 21.4088C127.738 21.8032 127.289 22.1154 126.79 22.3251C126.291 22.5348 125.754 22.6373 125.213 22.626H125.215ZM125.28 15.684C124.015 15.684 123.204 16.867 123.204 18.521C123.204 20.144 124.033 21.327 125.262 21.327C126.491 21.327 127.321 20.062 127.321 18.488C127.321 16.884 126.512 15.684 125.278 15.684H125.28ZM136.046 22.447L135.919 21.54H135.872C135.608 21.8967 135.26 22.1824 134.858 22.3719C134.457 22.5614 134.015 22.6487 133.572 22.626C133.259 22.6429 132.945 22.5952 132.651 22.4859C132.356 22.3766 132.088 22.208 131.861 21.9906C131.635 21.7731 131.456 21.5115 131.334 21.2219C131.213 20.9323 131.153 20.6209 131.157 20.307C131.157 18.362 132.844 17.356 135.764 17.356V17.211C135.764 16.173 135.214 15.654 134.128 15.654C133.399 15.6412 132.682 15.8448 132.069 16.239L131.713 15.088C132.533 14.6105 133.471 14.3741 134.419 14.406C136.478 14.406 137.519 15.492 137.519 17.666V20.566C137.507 21.1954 137.545 21.8247 137.633 22.448H136.053L136.046 22.447ZM135.805 18.522C133.859 18.522 132.883 18.993 132.883 20.111C132.866 20.2743 132.884 20.4395 132.938 20.5947C132.992 20.7499 133.079 20.8913 133.194 21.009C133.308 21.1266 133.447 21.2175 133.601 21.2753C133.755 21.333 133.919 21.3562 134.083 21.343C134.522 21.3547 134.948 21.1937 135.27 20.8945C135.592 20.5953 135.783 20.1818 135.803 19.743L135.805 18.522ZM146.018 22.447L145.936 21.182H145.888C145.654 21.6443 145.29 22.0276 144.84 22.2843C144.39 22.5411 143.874 22.6599 143.357 22.626C141.457 22.626 140.049 20.955 140.049 18.604C140.049 16.139 141.508 14.404 143.501 14.404C143.934 14.3611 144.371 14.4383 144.763 14.6272C145.155 14.8162 145.488 15.1095 145.724 15.475H145.759V10.95H147.512V20.323C147.512 21.085 147.53 21.799 147.577 22.447H146.018ZM145.759 17.81C145.778 17.5534 145.744 17.2958 145.661 17.0525C145.577 16.8092 145.445 16.5853 145.273 16.3944C145.1 16.2034 144.891 16.0493 144.658 15.9413C144.424 15.8333 144.171 15.7737 143.914 15.766C142.614 15.766 141.821 16.917 141.821 18.538C141.821 20.127 142.645 21.215 143.879 21.215C144.141 21.204 144.398 21.1407 144.635 21.029C144.872 20.9173 145.084 20.7594 145.259 20.5645C145.434 20.3697 145.569 20.1418 145.655 19.8942C145.74 19.6467 145.776 19.3845 145.759 19.123V17.81ZM158.629 22.626C158.106 22.6337 157.588 22.5321 157.107 22.3276C156.625 22.1231 156.192 21.8202 155.835 21.4385C155.478 21.0568 155.204 20.6046 155.032 20.111C154.86 19.6173 154.793 19.0931 154.835 18.572C154.788 18.0336 154.856 17.4913 155.033 16.9808C155.211 16.4703 155.494 16.003 155.865 15.6095C156.235 15.216 156.685 14.9052 157.184 14.6975C157.683 14.4898 158.22 14.3898 158.76 14.404C159.283 14.391 159.803 14.4885 160.286 14.6901C160.769 14.8917 161.204 15.1929 161.563 15.5741C161.921 15.9553 162.196 16.4078 162.367 16.9022C162.539 17.3965 162.605 17.9216 162.56 18.443C162.605 18.9825 162.537 19.5256 162.359 20.0368C162.181 20.5481 161.897 21.0162 161.526 21.4107C161.155 21.8052 160.706 22.1173 160.206 22.3267C159.707 22.536 159.169 22.638 158.628 22.626H158.629ZM158.694 15.684C157.43 15.684 156.62 16.867 156.62 18.521C156.62 20.144 157.447 21.327 158.678 21.327C159.909 21.327 160.737 20.062 160.737 18.488C160.739 16.884 159.928 15.684 158.693 15.684H158.694ZM171.976 22.447H170.221V17.922C170.221 16.528 169.686 15.83 168.631 15.83C168.388 15.8386 168.15 15.8958 167.93 15.9981C167.709 16.1004 167.512 16.2458 167.349 16.4257C167.186 16.6056 167.06 16.8164 166.98 17.0455C166.9 17.2747 166.866 17.5176 166.881 17.76V22.447H165.128V16.819C165.128 16.119 165.111 15.375 165.063 14.565H166.601L166.683 15.782H166.731C166.988 15.3512 167.355 14.9965 167.794 14.7541C168.234 14.5118 168.73 14.3907 169.231 14.403C170.886 14.403 171.974 15.668 171.974 17.727L171.976 22.447ZM183.762 15.88H181.835V19.707C181.835 20.681 182.173 21.167 182.855 21.167C183.116 21.1692 183.377 21.1417 183.632 21.085L183.68 22.415C183.243 22.562 182.782 22.6297 182.321 22.615C180.94 22.615 180.115 21.853 180.115 19.858V15.88H178.965V14.566H180.115V13.123L181.835 12.603V14.565H183.762V15.88ZM193.035 22.447H191.285V17.955C191.285 16.545 190.752 15.831 189.695 15.831C189.454 15.8252 189.214 15.8704 188.991 15.9636C188.768 16.0568 188.567 16.1959 188.402 16.3719C188.236 16.5479 188.11 16.7568 188.031 16.9849C187.952 17.2131 187.921 17.4554 187.942 17.696V22.447H186.192V10.947H187.942V15.681H187.977C188.222 15.2755 188.571 14.9428 188.988 14.7174C189.404 14.492 189.874 14.3821 190.347 14.399C192.015 14.399 193.035 15.699 193.035 17.756V22.443V22.447ZM202.535 18.928H197.278C197.266 19.2507 197.324 19.5722 197.446 19.8709C197.569 20.1695 197.754 20.4385 197.99 20.6596C198.225 20.8807 198.505 21.0488 198.811 21.1528C199.116 21.2567 199.441 21.2939 199.762 21.262C200.487 21.2687 201.207 21.1423 201.886 20.889L202.158 22.106C201.32 22.4482 200.419 22.6136 199.514 22.592C198.984 22.6327 198.452 22.5575 197.954 22.3717C197.456 22.1858 197.005 21.8937 196.631 21.5156C196.257 21.1376 195.971 20.6828 195.791 20.1827C195.611 19.6826 195.542 19.1494 195.589 18.62C195.589 16.204 197.083 14.387 199.316 14.387C201.33 14.387 202.594 15.879 202.594 18.133C202.605 18.3991 202.585 18.6657 202.534 18.927L202.535 18.928ZM200.929 17.68C200.929 16.463 200.316 15.605 199.196 15.605C198.674 15.6458 198.187 15.8823 197.831 16.267C197.476 16.6517 197.279 17.1564 197.28 17.68H200.929Z" fill="white"/>
<defs>
<linearGradient id="paint0_linear_6_1998" x1="-38.8662" y1="162.781" x2="-38.8662" y2="102.573" gradientUnits="userSpaceOnUse">
<stop stop-color="#1A1A1A" stop-opacity="0.102"/>
<stop offset="0.123" stop-color="#212121" stop-opacity="0.153"/>
<stop offset="0.308" stop-color="#353535" stop-opacity="0.227"/>
<stop offset="0.532" stop-color="#575757" stop-opacity="0.318"/>
<stop offset="0.783" stop-color="#858585" stop-opacity="0.42"/>
<stop offset="1" stop-color="#B3B3B3" stop-opacity="0.51"/>
</linearGradient>
</defs>
</svg>
