<svg width="17" height="17" viewBox="0 0 17 17" fill="none" xmlns="http://www.w3.org/2000/svg">
<path d="M7.05202 1.08305L7.87402 0.261047C7.95626 0.178354 8.05404 0.112734 8.16173 0.067955C8.26942 0.0231762 8.38489 0.00012207 8.50152 0.00012207C8.61815 0.00012207 8.73362 0.0231762 8.84131 0.067955C8.949 0.112734 9.04678 0.178354 9.12902 0.261047L16.329 7.45405C16.4117 7.53629 16.4773 7.63407 16.5221 7.74176C16.5669 7.84944 16.5899 7.96492 16.5899 8.08155C16.5899 8.19817 16.5669 8.31365 16.5221 8.42134C16.4773 8.52903 16.4117 8.62681 16.329 8.70905L9.12902 15.909C9.04678 15.9917 8.949 16.0574 8.84131 16.1021C8.73362 16.1469 8.61815 16.17 8.50152 16.17C8.38489 16.17 8.26942 16.1469 8.16173 16.1021C8.05404 16.0574 7.95626 15.9917 7.87402 15.909L7.05202 15.087C6.96851 15.0033 6.90256 14.9037 6.85802 14.7941C6.81349 14.6845 6.79127 14.5672 6.79266 14.4489C6.79406 14.3306 6.81905 14.2138 6.86616 14.1053C6.91327 13.9968 6.98155 13.8988 7.06702 13.817L11.528 9.56705H0.88802C0.770994 9.56731 0.655075 9.5444 0.546956 9.49961C0.438837 9.45483 0.340661 9.38907 0.258097 9.30614C0.175533 9.2232 0.110217 9.12473 0.0659216 9.01641C0.0216258 8.90809 -0.000772474 8.79207 2.03336e-05 8.67505V7.49105C-0.000243369 7.37436 0.0225454 7.25877 0.0670782 7.15091C0.111611 7.04306 0.17701 6.94506 0.259521 6.86255C0.342032 6.78004 0.44003 6.71464 0.547886 6.6701C0.655742 6.62557 0.771333 6.60278 0.88802 6.60305H11.528L7.06702 2.35005C7.06702 2.35005 6.70002 1.43405 7.05202 1.08305Z" fill="#CC0201"/>
</svg>
