<svg width="86" height="54" viewBox="0 0 86 54" fill="none" xmlns="http://www.w3.org/2000/svg">
<path d="M79.3001 17.3C80.5133 16.1696 81.4261 14.7551 81.9561 13.1839C82.4861 11.6127 82.6166 9.93423 82.336 8.29996C82.0553 6.6657 81.3723 5.127 80.3485 3.82263C79.3246 2.51827 77.9922 1.48927 76.4714 0.828434C74.9506 0.167602 73.2892 -0.104275 71.6371 0.0373211C69.9849 0.178917 68.394 0.729535 67.0078 1.63951C65.6216 2.54949 64.4837 3.79021 63.6968 5.24977C62.9099 6.70932 62.4986 8.34181 62.5001 10C62.4661 12.3114 63.2849 14.5542 64.8001 16.3C63.2639 16.6487 61.8152 17.3075 60.5427 18.2361C59.2702 19.1646 58.2008 20.3434 57.4001 21.7L54.7001 26H48.0001C47.0685 25.9967 46.1456 26.1809 45.2866 26.5417C44.4277 26.9025 43.65 27.4324 43.0001 28.1C42.3502 27.4324 41.5726 26.9025 40.7136 26.5417C39.8546 26.1809 38.9318 25.9967 38.0001 26H31.3001L28.6001 21.7C26.9208 19.0143 24.2701 17.08 21.2001 16.3C22.6743 14.5303 23.4874 12.3032 23.5001 10C23.5001 7.34784 22.4466 4.8043 20.5712 2.92893C18.6958 1.05357 16.1523 0 13.5001 0C10.848 0 8.30442 1.05357 6.42906 2.92893C4.55369 4.8043 3.50013 7.34784 3.50013 10C3.48844 11.3737 3.76753 12.7343 4.31904 13.9924C4.87055 15.2505 5.68202 16.3778 6.70013 17.3C4.6852 18.2666 2.98597 19.7852 1.79994 21.6793C0.613914 23.5734 -0.0102035 25.7652 0.000126174 28V48C0.00487436 49.5898 0.63854 51.1132 1.76273 52.2374C2.88692 53.3616 4.41029 53.9953 6.00013 54H20.0001C21.59 53.9953 23.1133 53.3616 24.2375 52.2374C25.3617 51.1132 25.9954 49.5898 26.0001 48V40H38.0001C38.9318 40.0033 39.8546 39.8191 40.7136 39.4583C41.5726 39.0975 42.3502 38.5676 43.0001 37.9C43.65 38.5676 44.4277 39.0975 45.2866 39.4583C46.1456 39.8191 47.0685 40.0033 48.0001 40H60.0001V48C60.0049 49.5898 60.6385 51.1132 61.7627 52.2374C62.8869 53.3616 64.4103 53.9953 66.0001 54H80.0001C81.59 53.9953 83.1133 53.3616 84.2375 52.2374C85.3617 51.1132 85.9954 49.5898 86.0001 48V28C86.0105 25.7652 85.3863 23.5734 84.2003 21.6793C83.0143 19.7852 81.3151 18.2666 79.3001 17.3ZM13.5001 4C14.6868 4 15.8469 4.35189 16.8335 5.01118C17.8202 5.67047 18.5893 6.60754 19.0434 7.7039C19.4975 8.80026 19.6164 10.0067 19.3848 11.1705C19.1533 12.3344 18.5819 13.4035 17.7428 14.2426C16.9037 15.0818 15.8346 15.6532 14.6707 15.8847C13.5068 16.1162 12.3004 15.9974 11.204 15.5433C10.1077 15.0892 9.1706 14.3201 8.51131 13.3334C7.85202 12.3467 7.50013 11.1867 7.50013 10C7.50487 8.41016 8.13854 6.88679 9.26273 5.7626C10.3869 4.63841 11.9103 4.00475 13.5001 4ZM38.0001 36H25.1001L19.5001 27C19.1988 26.5622 18.7481 26.2495 18.2325 26.1206C17.7169 25.9917 17.172 26.0555 16.7001 26.3C16.4687 26.437 16.2681 26.6205 16.111 26.8389C15.9539 27.0572 15.8437 27.3057 15.7874 27.5687C15.731 27.8317 15.7297 28.1035 15.7835 28.3671C15.8374 28.6306 15.9452 28.8802 16.1001 29.1L22.0001 38.7V48C21.9985 48.5299 21.7873 49.0377 21.4126 49.4125C21.0379 49.7872 20.5301 49.9984 20.0001 50H6.00013C5.47018 49.9984 4.96239 49.7872 4.58766 49.4125C4.21293 49.0377 4.00171 48.5299 4.00013 48V28C4.00646 25.8802 4.85135 23.8491 6.35027 22.3501C7.84919 20.8512 9.88034 20.0063 12.0001 20H18.4001C19.7649 19.9941 21.108 20.3408 22.2994 21.0066C23.4907 21.6724 24.4899 22.6346 25.2001 23.8L28.4001 29C28.5774 29.2954 28.8258 29.5417 29.1228 29.7164C29.4198 29.8911 29.7558 29.9886 30.1001 30H38.0001C38.3961 29.9927 38.7895 30.0653 39.1568 30.2134C39.5241 30.3616 39.8577 30.5823 40.1378 30.8624C40.4178 31.1424 40.6385 31.476 40.7867 31.8433C40.9349 32.2106 41.0075 32.604 41.0001 33C40.9978 33.7949 40.6809 34.5566 40.1188 35.1187C39.5567 35.6808 38.795 35.9976 38.0001 36ZM72.5001 4C73.6868 4 74.8469 4.35189 75.8335 5.01118C76.8202 5.67047 77.5893 6.60754 78.0434 7.7039C78.4975 8.80026 78.6164 10.0067 78.3848 11.1705C78.1533 12.3344 77.5819 13.4035 76.7428 14.2426C75.9037 15.0818 74.8346 15.6532 73.6707 15.8847C72.5068 16.1162 71.3004 15.9974 70.204 15.5433C69.1077 15.0892 68.1706 14.3201 67.5113 13.3334C66.852 12.3467 66.5001 11.1867 66.5001 10C66.5049 8.41016 67.1385 6.88679 68.2627 5.7626C69.3869 4.63841 70.9103 4.00475 72.5001 4ZM82.0001 48C81.9986 48.5299 81.7873 49.0377 81.4126 49.4125C81.0379 49.7872 80.5301 49.9984 80.0001 50H66.0001C65.4702 49.9984 64.9624 49.7872 64.5877 49.4125C64.2129 49.0377 64.0017 48.5299 64.0001 48V38.6L69.9001 29C70.1792 28.5456 70.2726 28.0012 70.1609 27.4798C70.0492 26.9584 69.7409 26.5001 69.3001 26.2C69.0642 26.0669 68.8041 25.982 68.5351 25.9502C68.2661 25.9184 67.9934 25.9404 67.7329 26.0148C67.4725 26.0892 67.2293 26.2146 67.0177 26.3838C66.8061 26.5529 66.6302 26.7623 66.5001 27L60.9001 36H48.0001C47.2052 35.9976 46.4435 35.6808 45.8814 35.1187C45.3193 34.5566 45.0025 33.7949 45.0001 33C44.9928 32.604 45.0654 32.2106 45.2136 31.8433C45.3617 31.476 45.5824 31.1424 45.8625 30.8624C46.1425 30.5823 46.4762 30.3616 46.8435 30.2134C47.2108 30.0653 47.6041 29.9927 48.0001 30H55.8001C56.1445 29.9886 56.4805 29.8911 56.7774 29.7164C57.0744 29.5417 57.3229 29.2954 57.5001 29L60.7001 23.8C61.4103 22.6346 62.4095 21.6724 63.6009 21.0066C64.7922 20.3408 66.1354 19.9941 67.5001 20H74.0001C76.1199 20.0063 78.1511 20.8512 79.65 22.3501C81.1489 23.8491 81.9938 25.8802 82.0001 28V48Z" fill="#CC0201"/>
</svg>
