<svg width="62" height="60" viewBox="0 0 62 60" fill="none" xmlns="http://www.w3.org/2000/svg">
<path d="M31 60C48.1208 60 62 46.5685 62 30C62 13.4315 48.1208 0 31 0C13.8792 0 0 13.4315 0 30C0 46.5685 13.8792 60 31 60Z" fill="white"/>
<path d="M24.2929 26.9511L22.2179 29.0291L28.8959 35.7091L43.7439 20.8631L41.6649 18.7851L28.8959 31.5531L24.2929 26.9511ZM40.7739 40.1651H19.9879V19.3791H34.8349V16.4091H19.9879C19.2009 16.4112 18.4467 16.7248 17.8902 17.2813C17.3336 17.8378 17.0201 18.592 17.0179 19.3791V40.1651C17.0201 40.9521 17.3336 41.7063 17.8902 42.2628C18.4467 42.8194 19.2009 43.1329 19.9879 43.1351H40.7739C41.561 43.1329 42.3152 42.8194 42.8717 42.2628C43.4282 41.7063 43.7418 40.9521 43.7439 40.1651V28.2871H40.7739V40.1651Z" fill="#CC0201"/>
</svg>
