<svg width="52" height="52" viewBox="0 0 52 52" fill="none" xmlns="http://www.w3.org/2000/svg">
<path d="M1.66804 26.261C4.10305 31.5271 7.49567 36.2948 11.673 40.321C18.988 47.637 26.764 51.852 32.124 51.852C32.9922 51.8971 33.8605 51.7671 34.6774 51.4697C35.4943 51.1723 36.243 50.7137 36.879 50.121L41.979 45.021C42.2184 44.7817 42.4083 44.4976 42.5379 44.1849C42.6674 43.8722 42.7341 43.537 42.7341 43.1985C42.7341 42.86 42.6674 42.5249 42.5379 42.2122C42.4083 41.8995 42.2184 41.6153 41.979 41.376L33.879 33.276C33.3881 32.8072 32.7354 32.5456 32.0565 32.5456C31.3777 32.5456 30.725 32.8072 30.234 33.276L27.609 35.892H27.592C26.614 35.892 23.292 34.192 20.545 31.449C17.786 28.69 16.082 25.34 16.103 24.385L18.719 21.769C18.9584 21.5297 19.1483 21.2456 19.2779 20.9329C19.4074 20.6202 19.4741 20.285 19.4741 19.9465C19.4741 19.608 19.4074 19.2729 19.2779 18.9602C19.1483 18.6475 18.9584 18.3633 18.719 18.124L10.614 10.019C10.1232 9.55 9.47044 9.28826 8.79154 9.28826C8.11264 9.28826 7.45987 9.55 6.96904 10.019L1.86904 15.119C-0.361963 17.347 -0.431963 21.305 1.66804 26.261ZM3.94904 17.192L8.79104 12.352L16.391 19.952L13.902 22.442C12.802 23.542 12.953 25.408 14.335 28.002C16.5623 32.0857 19.9184 35.4417 24.002 37.669C26.597 39.051 28.467 39.197 29.562 38.102L32.052 35.613L39.652 43.213L34.81 48.055C32.148 50.715 22.848 47.345 13.758 38.255C9.84344 34.4934 6.6609 30.0379 4.37204 25.115C2.81704 21.445 2.65904 18.483 3.94904 17.192ZM51.542 17.342V4.85803C51.5407 3.69023 51.0764 2.57062 50.2508 1.74468C49.4252 0.918739 48.3058 0.453879 47.138 0.452026H25.838C24.6709 0.454936 23.5526 0.920263 22.7279 1.74609C21.9032 2.57192 21.4394 3.69093 21.438 4.85803V17.342C21.4383 18.5098 21.9016 19.6299 22.7264 20.4565C23.5513 21.2832 24.6702 21.7491 25.838 21.752H28.283V26.892C28.2832 27.1763 28.3659 27.4544 28.521 27.6926C28.6761 27.9308 28.897 28.1189 29.1568 28.2341C29.4167 28.3493 29.7044 28.3866 29.9851 28.3415C30.2658 28.2964 30.5273 28.1708 30.738 27.98L37.662 21.752H47.138C48.3058 21.7491 49.4248 21.2832 50.2496 20.4565C51.0744 19.6299 51.5378 18.5098 51.538 17.342H51.542ZM37.099 18.81C36.7364 18.8103 36.3867 18.9445 36.117 19.187L31.225 23.587V20.279C31.225 19.8894 31.0703 19.5158 30.7948 19.2403C30.5193 18.9648 30.1456 18.81 29.756 18.81H25.838C25.4485 18.8098 25.075 18.6549 24.7996 18.3795C24.5242 18.104 24.3693 17.7305 24.369 17.341V4.85803C24.3693 4.4685 24.5242 4.09501 24.7996 3.81958C25.075 3.54415 25.4485 3.38929 25.838 3.38903H47.138C47.5276 3.38929 47.9011 3.54415 48.1765 3.81958C48.4519 4.09501 48.6068 4.4685 48.607 4.85803V17.342C48.6065 17.7314 48.4515 18.1046 48.1761 18.3798C47.9007 18.655 47.5274 18.8098 47.138 18.81H37.099Z" fill="#CC0201"/>
<path d="M29.8811 9.26404H27.0811V12.201H29.8811V9.26404Z" fill="#CC0201"/>
<path d="M37.8891 9.26404H35.0891V12.201H37.8891V9.26404Z" fill="#CC0201"/>
<path d="M45.8981 9.26404H43.0981V12.201H45.8981V9.26404Z" fill="#CC0201"/>
</svg>
