<svg width="41" height="49" viewBox="0 0 41 49" fill="none" xmlns="http://www.w3.org/2000/svg">
<path d="M40.5211 14.6211L21.0281 0.58606C20.8893 0.48606 20.7226 0.432251 20.5516 0.432251C20.3805 0.432251 20.2138 0.48606 20.0751 0.58606L0.585059 14.6211C0.480331 14.6967 0.395133 14.7962 0.336527 14.9113C0.277921 15.0264 0.247594 15.1539 0.248057 15.2831V48.1831C0.24753 48.2899 0.26811 48.3959 0.308619 48.4948C0.349127 48.5937 0.408766 48.6837 0.484114 48.7595C0.559462 48.8353 0.649036 48.8955 0.747698 48.9366C0.846361 48.9777 0.952171 48.9989 1.05906 48.9991H40.0481C40.1549 48.9989 40.2608 48.9777 40.3594 48.9366C40.4581 48.8955 40.5476 48.8353 40.623 48.7595C40.6983 48.6837 40.758 48.5937 40.7985 48.4948C40.839 48.3959 40.8596 48.2899 40.8591 48.1831V15.2831C40.8594 15.1539 40.8291 15.0265 40.7705 14.9114C40.7119 14.7963 40.6267 14.6968 40.5221 14.6211H40.5211ZM39.2211 47.3671H1.88006V15.7021L20.5481 2.25406L39.2251 15.7021L39.2211 47.3671Z" fill="#666666"/>
<path d="M13.1301 22.1451L10.2521 26.7701C9.97511 27.2238 9.83195 27.7465 9.83912 28.2781V41.1331C9.83456 41.2386 9.85116 41.3439 9.88791 41.4429C9.92467 41.5419 9.98085 41.6326 10.0532 41.7095C10.1255 41.7865 10.2124 41.8482 10.3089 41.8911C10.4054 41.9339 10.5095 41.957 10.6151 41.9591H30.4901C30.5957 41.957 30.6998 41.9339 30.7963 41.8911C30.8928 41.8482 30.9798 41.7865 31.0521 41.7095C31.1244 41.6326 31.1806 41.5419 31.2173 41.4429C31.2541 41.3439 31.2707 41.2386 31.2661 41.1331V28.2781C31.2732 27.7475 31.13 27.2257 30.8531 26.7731L27.9651 22.1451C27.8943 22.0273 27.7944 21.9297 27.6749 21.8617C27.5555 21.7938 27.4205 21.7577 27.2831 21.7571H13.8211C13.6825 21.7582 13.5465 21.7943 13.4257 21.8622C13.3049 21.93 13.2032 22.0273 13.1301 22.1451ZM26.8301 23.3901L29.0301 26.9611H23.7581L23.0761 23.3901H26.8301ZM23.0711 34.7971C23.2662 34.7971 23.4556 34.7308 23.6081 34.6091C23.7027 34.5334 23.7796 34.438 23.8335 34.3296C23.8874 34.2211 23.9169 34.1022 23.9201 33.9811V28.5941H29.6341V40.3271H11.4711V28.5931H16.8791V32.9711C16.8831 33.1625 16.9531 33.3466 17.0772 33.4924C17.2012 33.6381 17.3718 33.7366 17.5601 33.7711L22.9161 34.7801C22.9672 34.7904 23.019 34.7961 23.0711 34.7971ZM19.4201 23.3901H21.4201L22.1011 26.9611H18.7221L19.4201 23.3901ZM18.5121 28.5901H22.2871V32.9901L18.5121 32.2901V28.5901ZM17.7561 23.3901L17.0561 26.9611H12.0661L14.2661 23.3901H17.7561Z" fill="#666666"/>
</svg>
