<svg width="61" height="60" viewBox="0 0 61 60" fill="none" xmlns="http://www.w3.org/2000/svg">
<path d="M30.501 60C47.3457 60 61.001 46.5685 61.001 30C61.001 13.4315 47.3457 0 30.501 0C13.6563 0 0.000976562 13.4315 0.000976562 30C0.000976562 46.5685 13.6563 60 30.501 60Z" fill="white"/>
<path d="M40.17 19.897L19.643 29.371C19.1442 29.5931 18.7363 29.9791 18.4871 30.4649C18.2379 30.9507 18.1623 31.5071 18.2729 32.0418C18.3834 32.5765 18.6736 33.0573 19.095 33.4044C19.5165 33.7515 20.044 33.9441 20.59 33.95H29.275V42.635C29.281 43.181 29.4735 43.7085 29.8206 44.13C30.1677 44.5515 30.6485 44.8416 31.1832 44.9522C31.7179 45.0628 32.2744 44.9872 32.7602 44.738C33.246 44.4887 33.6319 44.0809 33.854 43.5821L43.329 23.055C43.49 22.6142 43.5216 22.1365 43.4202 21.6783C43.3188 21.2201 43.0886 20.8004 42.7567 20.4686C42.4248 20.1368 42.005 19.9067 41.5467 19.8054C41.0885 19.7042 40.6108 19.736 40.17 19.897Z" fill="#CC0201"/>
</svg>
