<svg width="79" height="50" viewBox="0 0 79 50" fill="none" xmlns="http://www.w3.org/2000/svg">
<path d="M5.78799 0.0149048C5.53403 0.10418 5.31498 0.271782 5.1624 0.493554C5.00982 0.715326 4.93159 0.979816 4.93899 1.24891V37.0489H1.23899C1.11112 37.0286 0.980855 37.0286 0.852987 37.0489C0.598969 37.1375 0.379619 37.3044 0.226513 37.5257C0.0734066 37.7469 -0.00555783 38.011 0.000986656 38.2799C0.000986656 41.7569 3.13499 44.4519 6.78999 44.4519H56.782V48.1519C56.7941 48.4753 56.928 48.7822 57.1569 49.011C57.3857 49.2399 57.6926 49.3738 58.016 49.3859H77.766C78.0891 49.3741 78.3958 49.2407 78.6247 49.0125C78.8537 48.7842 78.9881 48.4779 79.001 48.1549V16.0619C78.9889 15.7385 78.8549 15.4316 78.6261 15.2028C78.3973 14.9739 78.0904 14.84 77.767 14.8279H66.657V1.24891C66.6449 0.9255 66.5109 0.618628 66.2821 0.389785C66.0533 0.160942 65.7464 0.0270374 65.423 0.0149048H6.17399C6.04611 -0.00529379 5.91586 -0.00529379 5.78799 0.0149048ZM7.40799 2.4839H64.188V14.8269H58.016C57.8881 14.8066 57.7579 14.8066 57.63 14.8269C57.376 14.9162 57.157 15.0838 57.0044 15.3056C56.8518 15.5273 56.7736 15.7918 56.781 16.0609V24.7059H48.601L51.455 21.8519C51.622 21.6627 51.7303 21.4289 51.7667 21.1792C51.8031 20.9295 51.7661 20.6745 51.66 20.4455C51.554 20.2165 51.3836 20.0233 51.1696 19.8894C50.9556 19.7556 50.7073 19.687 50.455 19.6919C50.1877 19.7414 49.944 19.8769 49.761 20.0779L45.055 24.7839C43.825 26.0139 44.621 27.1759 45.981 27.1759H62.954C63.2814 27.1759 63.5954 27.0458 63.8269 26.8143C64.0584 26.5828 64.1885 26.2688 64.1885 25.9414C64.1885 25.614 64.0584 25.3 63.8269 25.0685C63.5954 24.837 63.2814 24.7069 62.954 24.7069H59.254V22.2329H76.532V41.9829H59.251V32.1059H64.883L62.101 34.8849C61.9663 34.9916 61.8553 35.1252 61.7753 35.2773C61.6952 35.4293 61.6478 35.5964 61.636 35.7679C61.6243 35.9393 61.6485 36.1113 61.707 36.2729C61.7656 36.4344 61.8573 36.582 61.9762 36.706C62.0951 36.8301 62.2386 36.928 62.3975 36.9934C62.5564 37.0588 62.7272 37.0903 62.899 37.0858C63.0708 37.0814 63.2398 37.0411 63.3951 36.9676C63.5504 36.8941 63.6887 36.789 63.801 36.6589L68.584 31.9529C68.7397 31.8545 68.8716 31.7226 68.97 31.5669C69.192 31.3449 69.458 29.6379 67.89 29.6379H50.61C50.4821 29.6176 50.3519 29.6176 50.224 29.6379C49.8966 29.6891 49.6029 29.8682 49.4076 30.136C49.2123 30.4037 49.1313 30.738 49.1825 31.0654C49.2337 31.3928 49.4128 31.6865 49.6805 31.8818C49.9482 32.0771 50.2826 32.1581 50.61 32.1069H56.782V37.0459H7.40799V2.4839ZM59.251 17.2959H76.532V19.7649H59.251V17.2959ZM3.08799 39.5139H56.782V41.9829H6.79099C5.99817 41.9864 5.22233 41.7533 4.56269 41.3135C3.90305 40.8737 3.38959 40.2471 3.08799 39.5139ZM59.251 44.4519H76.532V46.9209H59.251V44.4519Z" fill="#CC0201"/>
</svg>
