<svg width="205" height="67" viewBox="0 0 205 67" fill="none" xmlns="http://www.w3.org/2000/svg">
<path d="M204.283 57.792C204.283 60.1867 203.332 62.4835 201.639 64.1771C199.946 65.8707 197.65 66.8225 195.255 66.823H9.03C6.635 66.8227 4.33819 65.8711 2.64477 64.1775C0.95134 62.4839 -1.46826e-08 60.187 0 57.792V9.03C0.000265163 6.63518 0.951723 4.33851 2.64512 2.64512C4.33851 0.951723 6.63518 0.000265163 9.03 0H195.255C197.65 0.000530356 199.946 0.952137 201.639 2.64553C203.332 4.33893 204.283 6.63544 204.283 9.03V57.792Z" fill="black"/>
<path d="M15.322 12.865V58.119L38.141 35.493L15.322 12.865Z" fill="url(#paint0_linear_6_1985)"/>
<path d="M44.27 29.415L35.059 24.097L15.322 12.699V12.864L38.141 35.491L44.27 29.415Z" fill="url(#paint1_linear_6_1985)"/>
<path d="M15.322 58.1221V58.287L35.059 46.887L44.27 41.569L38.142 35.4921L15.322 58.1221Z" fill="url(#paint2_linear_6_1985)"/>
<path d="M44.2711 29.4139L38.1421 35.4919L44.27 41.569L54.7971 35.4919L44.2711 29.4139Z" fill="url(#paint3_linear_6_1985)"/>
<path d="M158.983 44.338C158.176 44.3479 157.376 44.1863 156.636 43.864C155.923 43.5437 155.307 43.0403 154.852 42.405H154.708C154.801 43.1296 154.849 43.8594 154.852 44.59V50.0049H152.864V30.937H154.485L154.761 32.737H154.861C155.312 32.07 155.929 31.5319 156.651 31.176C157.386 30.8443 158.186 30.6804 158.992 30.696C159.759 30.6538 160.525 30.794 161.228 31.1049C161.93 31.4159 162.549 31.8888 163.033 32.485C163.967 33.9967 164.46 35.7396 164.456 37.5168C164.452 39.2939 163.951 41.0345 163.01 42.542C162.527 43.1369 161.911 43.6096 161.211 43.9216C160.512 44.2337 159.748 44.3763 158.983 44.338V44.338ZM158.695 32.39C158.156 32.3401 157.612 32.4149 157.106 32.6086C156.601 32.8023 156.146 33.1096 155.778 33.507C155.089 34.5589 154.764 35.8077 154.853 37.062V37.506C154.734 38.8935 155.058 40.283 155.778 41.475C156.143 41.8943 156.602 42.221 157.118 42.4286C157.633 42.6361 158.191 42.7185 158.744 42.6689C159.27 42.6862 159.792 42.5684 160.26 42.3268C160.728 42.0853 161.126 41.728 161.417 41.289C162.121 40.1487 162.458 38.8199 162.383 37.482C162.468 36.1529 162.13 34.8311 161.417 33.706C161.108 33.2779 160.698 32.9334 160.223 32.7037C159.747 32.4739 159.222 32.3661 158.695 32.39V32.39ZM169.062 44.097H167.064V25.413H169.057L169.062 44.097ZM180.522 44.097L180.122 42.224H180.022C179.509 42.9296 178.836 43.5036 178.058 43.899C177.283 44.2148 176.451 44.3643 175.615 44.338C174.502 44.403 173.405 44.0427 172.547 43.33C172.166 42.9603 171.869 42.5123 171.677 42.0168C171.485 41.5214 171.403 40.9902 171.436 40.46C171.436 37.8026 173.561 36.4096 177.812 36.2809L180.046 36.209V35.3929C180.113 34.5745 179.876 33.7601 179.379 33.106C179.097 32.8386 178.761 32.6344 178.393 32.507C178.026 32.3795 177.635 32.3318 177.248 32.3669C175.947 32.42 174.675 32.7649 173.526 33.376L172.913 31.851C173.587 31.4889 174.303 31.2108 175.045 31.0229C175.803 30.8247 176.584 30.7239 177.368 30.723C178.62 30.6216 179.865 30.9942 180.856 31.767C181.269 32.2154 181.583 32.7452 181.778 33.3224C181.973 33.8995 182.046 34.5112 181.99 35.118V44.099H180.513L180.522 44.097ZM176.022 42.697C177.093 42.758 178.145 42.3911 178.946 41.677C179.312 41.3006 179.596 40.852 179.779 40.3599C179.962 39.8678 180.04 39.3431 180.009 38.819V37.623L178.015 37.706C176.829 37.6685 175.652 37.9226 174.587 38.446C174.244 38.6583 173.965 38.9598 173.781 39.3182C173.596 39.6766 173.511 40.0785 173.537 40.481C173.516 40.7865 173.565 41.0928 173.678 41.3773C173.791 41.6618 173.967 41.9173 174.192 42.125C174.712 42.5298 175.361 42.7316 176.019 42.693L176.022 42.697ZM183.159 30.941H185.296L188.178 38.446C188.654 39.6549 189.047 40.8947 189.355 42.157H189.455C189.559 41.7483 189.777 41.0483 190.109 40.0569C190.441 39.0656 191.528 36.026 193.369 30.938H195.507L189.844 45.923C189.465 47.1225 188.79 48.207 187.88 49.076C187.103 49.7057 186.125 50.0354 185.125 50.0049C184.52 50.0062 183.916 49.9392 183.325 49.805V48.205C183.811 48.3054 184.306 48.3537 184.802 48.349C185.477 48.3437 186.131 48.1143 186.661 47.6969C187.192 47.2795 187.568 46.6977 187.732 46.043L188.464 44.17L183.159 30.941ZM122.059 32.164C122.654 32.5864 123.141 33.143 123.481 33.7888C123.82 34.4346 124.002 35.1514 124.013 35.881C124.013 37.917 122.857 38.881 121.701 39.789C121.486 39.9486 121.307 40.1509 121.174 40.3832C121.041 40.6156 120.958 40.8729 120.93 41.139C120.947 41.379 121.02 41.6116 121.145 41.8174C121.27 42.0232 121.442 42.1962 121.647 42.322L122.638 43.091C123.849 44.11 124.949 45.046 124.949 46.946C124.949 49.533 122.444 52.146 117.71 52.146C113.718 52.146 111.792 50.246 111.792 48.209C111.819 47.5122 112.028 46.8346 112.401 46.245C112.773 45.6553 113.294 45.1745 113.912 44.851C115.544 44.0296 117.343 43.596 119.169 43.584C118.674 43.0826 118.381 42.4173 118.343 41.714C118.353 41.3395 118.447 40.972 118.618 40.639C118.318 40.667 118.012 40.694 117.736 40.694C117.149 40.7233 116.563 40.6334 116.011 40.4298C115.46 40.2262 114.956 39.9131 114.529 39.5093C114.102 39.1055 113.761 38.6194 113.528 38.0804C113.294 37.5414 113.171 36.9606 113.168 36.373C113.182 35.6683 113.347 34.9748 113.65 34.3388C113.954 33.7028 114.39 33.139 114.929 32.685C116.342 31.6138 118.088 31.0771 119.858 31.17H125.527L123.765 32.1609H122.064L122.059 32.164ZM120.104 44.386C119.894 44.3607 119.683 44.351 119.472 44.357C118.493 44.3755 117.521 44.5244 116.581 44.8C115.934 44.9546 115.354 45.314 114.927 45.8248C114.5 46.3356 114.25 46.9704 114.213 47.6349C114.213 49.5879 116.113 50.994 119.059 50.994C121.7 50.994 123.105 49.725 123.105 48.02C123.106 46.609 122.197 45.869 120.104 44.382V44.386ZM120.904 39.155C121.39 38.6021 121.637 37.8794 121.591 37.145C121.591 35.164 120.408 32.081 118.124 32.081C117.757 32.086 117.394 32.1697 117.062 32.3265C116.73 32.4833 116.435 32.7095 116.197 32.99C115.768 33.5794 115.553 34.2986 115.591 35.027C115.591 36.871 116.665 39.927 119.033 39.927C119.731 39.9089 120.397 39.6324 120.903 39.151L120.904 39.155ZM104.731 43.9449C103.861 43.9738 102.995 43.8274 102.183 43.5143C101.371 43.2012 100.63 42.7279 100.005 42.1226C99.38 41.5173 98.883 40.7923 98.5438 39.991C98.2047 39.1896 98.0304 38.3281 98.0311 37.4579C98.0478 36.5482 98.2466 35.6511 98.6158 34.8196C98.9851 33.988 99.5173 33.2389 100.181 32.6165C100.845 31.994 101.626 31.5109 102.48 31.1957C103.333 30.8804 104.241 30.7394 105.15 30.7809C106.011 30.7619 106.867 30.916 107.667 31.2341C108.466 31.5522 109.194 32.0279 109.807 32.6328C110.419 33.2377 110.904 33.9595 111.232 34.7554C111.56 35.5513 111.725 36.4051 111.717 37.266C111.713 38.1679 111.526 39.0596 111.17 39.888C110.813 40.7164 110.293 41.4645 109.641 42.0875C108.989 42.7106 108.218 43.1959 107.374 43.5145C106.531 43.8331 105.631 43.9785 104.73 43.942L104.731 43.9449ZM108.166 41.719C108.766 40.8186 109.056 39.7471 108.992 38.667C108.992 36.248 107.838 31.632 104.43 31.632C103.521 31.6401 102.644 31.972 101.957 32.568C101.509 32.9972 101.164 33.521 100.945 34.1011C100.726 34.6813 100.64 35.3031 100.692 35.921C100.692 38.64 102.039 43.121 105.365 43.121C105.909 43.1194 106.444 42.9917 106.93 42.7479C107.416 42.5041 107.838 42.1508 108.164 41.716L108.166 41.719ZM89.8361 43.9449C88.9659 43.9745 88.0987 43.8285 87.2861 43.5157C86.4736 43.203 85.7324 42.7299 85.1066 42.1245C84.4808 41.5192 83.9832 40.794 83.6437 39.9922C83.3041 39.1905 83.1295 38.3286 83.1301 37.4579C83.147 36.5483 83.3458 35.6513 83.7151 34.8198C84.0844 33.9883 84.6165 33.2392 85.2802 32.6168C85.9438 31.9944 86.7254 31.5112 87.5789 31.1959C88.4323 30.8806 89.3403 30.7395 90.2491 30.7809C91.1099 30.7617 91.9656 30.9158 92.7656 31.2338C93.5657 31.5519 94.2937 32.0275 94.9062 32.6324C95.5188 33.2374 96.0036 33.9593 96.3317 34.7553C96.6598 35.5513 96.8244 36.4051 96.816 37.266C96.8117 38.1675 96.6258 39.0589 96.2695 39.887C95.9132 40.7151 95.3938 41.463 94.7422 42.086C94.0906 42.709 93.3202 43.1944 92.4769 43.5133C91.6337 43.8322 90.7349 43.978 89.8341 43.942L89.8361 43.9449ZM93.2721 41.719C93.8714 40.8183 94.1609 39.7469 94.097 38.667C94.097 36.248 92.9421 31.632 89.5341 31.632C88.6247 31.6401 87.7479 31.972 87.061 32.568C86.6136 32.9972 86.2679 33.5211 86.0492 34.1013C85.8305 34.6814 85.7443 35.3032 85.7971 35.921C85.7971 38.64 87.1431 43.121 90.4691 43.121C91.0129 43.1195 91.5489 42.9918 92.0349 42.748C92.521 42.5042 92.9438 42.1509 93.2701 41.716L93.2721 41.719ZM81.0311 43.514L77.0791 44.426C75.5743 44.7011 74.0504 44.8579 72.5211 44.895C64.8941 44.895 61.9941 39.286 61.9941 34.895C61.9941 29.536 66.1101 24.563 73.1571 24.563C74.5854 24.5659 76.0068 24.7609 77.3831 25.1429C78.6956 25.4797 79.9328 26.0608 81.03 26.856L78.7361 29.039L77.769 29.259L78.4601 28.153C77.7133 27.3274 76.8005 26.6691 75.7815 26.221C74.7625 25.7729 73.6603 25.5453 72.5471 25.553C68.1811 25.553 64.8931 28.87 64.8931 33.705C64.8931 38.898 68.6511 43.789 74.6731 43.789C75.8796 43.8188 77.0779 43.5829 78.1831 43.098V38.651L74.0121 38.8719L76.2211 37.683H82.0791L81.3611 38.374C81.2868 38.4242 81.2238 38.4893 81.1761 38.5652C81.1285 38.6412 81.0971 38.7263 81.0841 38.815C81.0551 39.064 81.0291 39.866 81.0291 40.142V43.514H81.0311Z" fill="#F9F9F9"/>
<path d="M130.792 42.715C129.88 42.632 129.692 42.467 129.692 41.388V25.75C129.698 25.69 129.701 25.629 129.707 25.572C129.819 24.605 130.094 24.44 130.952 23.942H127L124.927 24.937H127.039V41.997C127.039 42.549 126.93 42.632 126.294 43.46H131.185L132.207 42.854C131.733 42.797 131.262 42.77 130.792 42.715ZM142.035 42.9691C141.735 43.1341 141.435 43.327 141.135 43.463C140.295 43.8257 139.386 44.0037 138.471 43.985C137.169 44.0436 135.885 43.6667 134.821 42.914C133.931 42.2374 133.214 41.3604 132.728 40.3542C132.241 39.3481 131.999 38.2414 132.021 37.124C132.005 36.2923 132.156 35.4659 132.466 34.6937C132.775 33.9215 133.237 33.2192 133.822 32.6284C134.408 32.0376 135.106 31.5703 135.875 31.2542C136.645 30.9381 137.47 30.7796 138.302 30.788C139.298 30.7751 140.278 31.0415 141.13 31.557C142.089 32.1871 142.775 33.1572 143.048 34.272L136.601 36.88L134.488 37.045C135.173 40.53 137.533 42.559 140.14 42.559C141.318 42.5225 142.468 42.1929 143.487 41.6L142.035 42.9691ZM139.456 34.788C139.977 34.597 140.251 34.431 140.251 34.048C140.163 33.3915 139.838 32.7896 139.338 32.3552C138.838 31.9208 138.196 31.6836 137.534 31.688C136.434 31.688 134.379 32.539 134.379 35.502C134.379 35.968 134.434 36.462 134.462 36.958L139.456 34.788ZM144.683 30.971V32.788H144.463V30.978H143.863V30.788H145.281V30.976L144.683 30.971ZM147.151 32.781V30.954H147.141L146.583 32.781H146.411L145.849 30.954H145.842V32.788H145.642V30.788H145.984L146.493 32.403H146.5L147 30.788H147.347V32.788H147.147L147.151 32.781Z" fill="#F9F9F9"/>
<path d="M67.48 19.177H66.1069C66.0254 18.6329 65.8946 18.0974 65.7159 17.577H63.7339C63.5477 18.0957 63.4138 18.6317 63.334 19.177H62.043C62.043 19.0657 62.3763 18.1503 63.043 16.431C63.4421 15.5088 63.7762 14.5598 64.043 13.591H65.6649C65.9088 14.5423 66.2117 15.4774 66.5719 16.391C66.9297 17.3008 67.233 18.2311 67.48 19.177V19.177ZM65.4979 16.753C65.212 15.9683 64.967 15.1692 64.7639 14.359H64.6949C64.6949 14.4704 64.4419 15.2684 63.9359 16.753H65.4979ZM73.0129 19.177H71.953C71.626 18.5179 71.2305 17.8952 70.7729 17.319C70.1949 16.5794 69.7215 15.7638 69.366 14.895H69.297C69.365 15.4592 69.4009 16.0268 69.4049 16.595C69.4049 17.3017 69.425 18.1627 69.465 19.178H68.4089C68.4516 18.2914 68.4729 17.3174 68.4729 16.256C68.4729 15.212 68.4516 14.324 68.4089 13.592H69.683C69.9556 14.2407 70.3119 14.8509 70.7429 15.407C71.2688 16.1129 71.7055 16.881 72.043 17.694H72.1069C72.0433 17.1242 72.0099 16.5514 72.007 15.978C72.007 15.2033 71.9869 14.408 71.9469 13.592H73.0199C72.9792 14.3014 72.9593 15.1894 72.96 16.256C72.9606 17.3227 72.978 18.2964 73.012 19.177H73.0129ZM79.231 16.191C79.2423 16.9725 78.9641 17.7304 78.45 18.319C78.1771 18.6253 77.8387 18.8661 77.4598 19.0235C77.081 19.1808 76.6715 19.2508 76.262 19.228C75.8386 19.228 75.255 19.2107 74.511 19.176C74.5483 18.3093 74.5669 17.3353 74.5669 16.254C74.5669 15.2133 74.5483 14.3253 74.511 13.59H75.262C75.3853 13.59 75.5682 13.5857 75.8109 13.577C76.0536 13.5683 76.2123 13.564 76.287 13.564C76.6947 13.5264 77.1056 13.5758 77.4928 13.7089C77.88 13.842 78.2345 14.0557 78.533 14.336C78.9945 14.8417 79.244 15.5055 79.23 16.19L79.231 16.191ZM78.0599 16.375C78.0751 15.8692 77.9043 15.3754 77.58 14.987C77.393 14.7895 77.1642 14.6364 76.9104 14.5388C76.6566 14.4412 76.384 14.4017 76.1129 14.423C75.9436 14.4264 75.7747 14.4394 75.6069 14.462C75.6349 15.034 75.6492 15.6317 75.6499 16.255C75.6499 16.939 75.6643 17.617 75.693 18.289C75.8764 18.326 76.0629 18.3447 76.25 18.345C76.5068 18.365 76.7647 18.3235 77.0023 18.2238C77.2399 18.1241 77.4502 17.9693 77.616 17.772C77.9182 17.3703 78.0744 16.8775 78.059 16.375H78.0599ZM84.965 19.175H83.6949C83.5166 18.5216 83.26 17.892 82.9309 17.3C82.8274 17.1757 82.6952 17.0783 82.5458 17.0163C82.3963 16.9543 82.2341 16.9295 82.073 16.944C81.907 16.944 81.7483 16.944 81.5969 16.944C81.5969 17.6773 81.61 18.4197 81.636 19.171H80.443C80.4803 18.3044 80.4989 17.3304 80.4989 16.249C80.4989 15.2084 80.4803 14.3204 80.443 13.585H81.1849C81.2709 13.585 81.4502 13.5807 81.7229 13.572C81.9956 13.5634 82.248 13.559 82.48 13.559C83.7926 13.559 84.449 14.008 84.449 14.906C84.4553 15.2442 84.348 15.5747 84.1442 15.8447C83.9404 16.1147 83.6519 16.3085 83.325 16.395V16.459C83.6567 16.5757 83.9294 16.8181 84.084 17.134C84.4276 17.7923 84.7217 18.4751 84.964 19.177L84.965 19.175ZM83.356 15.228C83.356 14.6587 82.9893 14.374 82.256 14.374C82.0173 14.3714 81.7788 14.3915 81.5439 14.434C81.5753 14.8774 81.5909 15.455 81.5909 16.167C81.7479 16.173 81.881 16.175 81.991 16.175C82.9003 16.177 83.3553 15.8617 83.356 15.229V15.228ZM91.115 16.279C91.1421 17.0846 90.8524 17.8687 90.308 18.463C90.057 18.7421 89.749 18.964 89.4048 19.1135C89.0606 19.2631 88.6882 19.337 88.313 19.33C87.9578 19.3382 87.6048 19.2711 87.2773 19.1332C86.9499 18.9953 86.6554 18.7898 86.413 18.53C86.1579 18.2603 85.9589 17.9426 85.8278 17.5953C85.6966 17.248 85.6358 16.878 85.6489 16.507C85.6218 15.7015 85.9115 14.9174 86.4559 14.323C86.7068 14.0439 87.0149 13.822 87.3591 13.6724C87.7034 13.5228 88.0757 13.449 88.4509 13.456C88.8056 13.4474 89.1582 13.5136 89.4856 13.6504C89.813 13.7872 90.1079 13.9916 90.351 14.25C90.6067 14.5206 90.806 14.8396 90.937 15.1882C91.068 15.5367 91.1281 15.9079 91.1139 16.28L91.115 16.279ZM89.9309 16.403C89.955 15.879 89.7923 15.3634 89.4719 14.948C89.3392 14.7736 89.1678 14.6323 88.9712 14.5355C88.7746 14.4387 88.5582 14.3889 88.339 14.39C88.1296 14.3917 87.9237 14.4436 87.7385 14.5414C87.5534 14.6392 87.3943 14.78 87.2749 14.952C86.9719 15.3619 86.8174 15.8627 86.8369 16.372C86.8136 16.8954 86.9771 17.41 87.298 17.824C87.4301 17.9987 87.6011 18.1402 87.7974 18.2374C87.9937 18.3346 88.2099 18.3848 88.429 18.384C88.6385 18.3822 88.8446 18.33 89.0298 18.2319C89.215 18.1337 89.3738 17.9925 89.4929 17.82C89.7944 17.4114 89.9485 16.9125 89.9299 16.405L89.9309 16.403ZM93.5409 19.175H92.3269C92.3642 18.2884 92.3829 17.3144 92.3829 16.253C92.3829 15.209 92.3642 14.321 92.3269 13.589H93.5409C93.5036 14.3097 93.485 15.1977 93.485 16.253C93.4843 17.3324 93.5026 18.307 93.5399 19.177L93.5409 19.175ZM99.7599 16.189C99.7712 16.9704 99.4931 17.7284 98.979 18.317C98.7061 18.6233 98.3676 18.8641 97.9888 19.0215C97.6099 19.1788 97.2005 19.2488 96.7909 19.226C96.3676 19.226 95.7839 19.2087 95.0399 19.174C95.0773 18.3074 95.0959 17.3334 95.0959 16.252C95.0959 15.2114 95.0773 14.3234 95.0399 13.588H95.7909C95.9142 13.588 96.0973 13.5837 96.34 13.575C96.5826 13.5664 96.7413 13.562 96.8159 13.562C97.2236 13.5245 97.6347 13.5738 98.0219 13.7069C98.409 13.84 98.7635 14.0538 99.0619 14.334C99.5239 14.8403 99.7735 15.5048 99.7589 16.19L99.7599 16.189ZM98.589 16.373C98.6038 15.8671 98.4326 15.3733 98.1079 14.985C97.921 14.7875 97.6922 14.6343 97.4384 14.5367C97.1845 14.4391 96.9121 14.3996 96.641 14.421C96.4717 14.4244 96.3027 14.4375 96.1349 14.46C96.1629 15.032 96.1773 15.6297 96.178 16.253C96.178 16.937 96.1923 17.615 96.2209 18.287C96.4043 18.324 96.5909 18.3428 96.778 18.343C97.0348 18.363 97.2927 18.3214 97.5303 18.2218C97.7678 18.1221 97.9782 17.9673 98.1439 17.77C98.446 17.3689 98.6026 16.8769 98.5879 16.375L98.589 16.373ZM108.01 19.173H106.637C106.556 18.6289 106.425 18.0934 106.246 17.573H104.264C104.078 18.0917 103.944 18.6277 103.864 19.173H102.573C102.573 19.0617 102.906 18.1464 103.573 16.427C103.972 15.5048 104.306 14.5558 104.573 13.587H106.195C106.439 14.5382 106.742 15.4733 107.102 16.387C107.459 17.2982 107.762 18.2298 108.009 19.177L108.01 19.173ZM106.028 16.749C105.742 15.9642 105.497 15.1652 105.294 14.355H105.225C105.225 14.4664 104.972 15.2644 104.466 16.749H106.028ZM113.015 15.049C113.035 15.3466 112.974 15.6439 112.84 15.9103C112.706 16.1767 112.503 16.4024 112.253 16.564C111.691 16.9048 111.042 17.0747 110.385 17.053C110.25 17.053 110.155 17.053 110.098 17.045C110.098 17.583 110.114 18.2924 110.145 19.173H108.939C108.976 18.3464 108.995 17.3724 108.995 16.251C108.995 15.2217 108.976 14.3337 108.939 13.587H109.685C109.791 13.587 109.994 13.5827 110.294 13.574C110.594 13.5654 110.854 13.561 111.075 13.561C111.56 13.5452 112.039 13.6736 112.452 13.93C112.636 14.051 112.785 14.2186 112.884 14.4158C112.982 14.6131 113.027 14.833 113.013 15.053L113.015 15.049ZM111.908 15.285C111.908 14.673 111.502 14.367 110.689 14.367C110.473 14.3683 110.258 14.3897 110.046 14.431C110.077 14.9717 110.093 15.5837 110.093 16.267C110.165 16.273 110.248 16.275 110.342 16.275C111.385 16.279 111.906 15.9504 111.906 15.289L111.908 15.285ZM118.161 15.049C118.181 15.3464 118.12 15.6437 117.987 15.91C117.853 16.1764 117.65 16.4022 117.4 16.564C116.838 16.9048 116.188 17.0748 115.531 17.053C115.396 17.053 115.301 17.053 115.243 17.045C115.243 17.583 115.259 18.2924 115.29 19.173H114.084C114.121 18.3464 114.14 17.3724 114.14 16.251C114.14 15.2217 114.121 14.3337 114.084 13.587H114.831C114.937 13.587 115.14 13.5827 115.44 13.574C115.74 13.5654 116 13.561 116.221 13.561C116.706 13.5451 117.186 13.6735 117.598 13.93C117.782 14.051 117.931 14.2186 118.03 14.4158C118.128 14.6131 118.173 14.833 118.159 15.053L118.161 15.049ZM117.054 15.285C117.054 14.673 116.648 14.367 115.835 14.367C115.619 14.3682 115.404 14.3897 115.192 14.431C115.223 14.9717 115.239 15.5837 115.239 16.267C115.31 16.273 115.394 16.275 115.488 16.275C116.531 16.279 117.052 15.9504 117.052 15.289L117.054 15.285ZM126.574 16.276C126.601 17.0816 126.311 17.8657 125.767 18.46C125.516 18.7392 125.208 18.961 124.864 19.1106C124.52 19.2602 124.147 19.334 123.772 19.327C123.417 19.3351 123.064 19.2681 122.736 19.1302C122.409 18.9923 122.114 18.7868 121.872 18.527C121.617 18.2573 121.418 17.9396 121.287 17.5923C121.156 17.245 121.095 16.875 121.108 16.504C121.081 15.6985 121.371 14.9144 121.915 14.32C122.166 14.0409 122.474 13.8189 122.818 13.6693C123.162 13.5197 123.535 13.446 123.91 13.453C124.265 13.4444 124.617 13.5106 124.945 13.6474C125.272 13.7843 125.567 13.9886 125.81 14.247C126.066 14.5181 126.265 14.8376 126.396 15.1867C126.527 15.5358 126.587 15.9075 126.572 16.28L126.574 16.276ZM125.39 16.4C125.414 15.876 125.251 15.3604 124.931 14.945C124.798 14.7705 124.627 14.6292 124.43 14.5324C124.234 14.4355 124.017 14.3858 123.798 14.387C123.589 14.3887 123.383 14.4406 123.198 14.5384C123.012 14.6362 122.853 14.777 122.734 14.949C122.431 15.3589 122.276 15.8597 122.296 16.369C122.273 16.8924 122.436 17.407 122.757 17.821C122.889 17.9956 123.06 18.137 123.256 18.2342C123.452 18.3314 123.668 18.3816 123.887 18.381C124.097 18.3792 124.303 18.327 124.488 18.2289C124.673 18.1307 124.832 17.9895 124.951 17.817C125.252 17.4093 125.406 16.9115 125.388 16.405L125.39 16.4ZM132.39 19.172H131.33C131.003 18.5129 130.608 17.8901 130.15 17.314C129.572 16.5744 129.098 15.7588 128.743 14.89H128.674C128.742 15.4542 128.777 16.0218 128.781 16.59C128.781 17.2967 128.801 18.1577 128.841 19.173H127.785C127.828 18.2864 127.849 17.3124 127.849 16.251C127.849 15.207 127.828 14.319 127.785 13.587H129.059C129.332 14.2356 129.688 14.8457 130.119 15.402C130.645 16.1078 131.082 16.876 131.419 17.689H131.483C131.419 17.1192 131.386 16.5464 131.383 15.973C131.383 15.1984 131.363 14.403 131.323 13.587H132.396C132.356 14.2964 132.336 15.1844 132.336 16.251C132.336 17.3177 132.353 18.293 132.388 19.177L132.39 19.172Z" fill="#F9F9FA"/>
<defs>
<linearGradient id="paint0_linear_6_1985" x1="48.2042" y1="81.6058" x2="48.2042" y2="77.8497" gradientUnits="userSpaceOnUse">
<stop stop-color="#257CB0"/>
<stop offset="0.286" stop-color="#4A93B5"/>
<stop offset="0.767" stop-color="#78BCBB"/>
<stop offset="1" stop-color="#89CFBD"/>
</linearGradient>
<linearGradient id="paint1_linear_6_1985" x1="47.2517" y1="80.6647" x2="49.6833" y2="80.6647" gradientUnits="userSpaceOnUse">
<stop stop-color="#52C1AD"/>
<stop offset="1" stop-color="#DEE89A"/>
</linearGradient>
<linearGradient id="paint2_linear_6_1985" x1="48.4675" y1="79.7142" x2="48.4675" y2="77.8222" gradientUnits="userSpaceOnUse">
<stop stop-color="#EC413D"/>
<stop offset="0.167" stop-color="#DA4452"/>
<stop offset="0.575" stop-color="#B0487A"/>
<stop offset="0.862" stop-color="#954A92"/>
<stop offset="1" stop-color="#8A4A9D"/>
</linearGradient>
<linearGradient id="paint3_linear_6_1985" x1="49.8672" y1="80.222" x2="49.8672" y2="79.2131" gradientUnits="userSpaceOnUse">
<stop stop-color="#F58879"/>
<stop offset="0.119" stop-color="#F69079"/>
<stop offset="0.713" stop-color="#FCB877"/>
<stop offset="1" stop-color="#FEC874"/>
</linearGradient>
</defs>
</svg>
