<svg width="61" height="60" viewBox="0 0 61 60" fill="none" xmlns="http://www.w3.org/2000/svg">
<path d="M30.5 60C47.3447 60 61 46.5685 61 30C61 13.4315 47.3447 0 30.5 0C13.6553 0 0 13.4315 0 30C0 46.5685 13.6553 60 30.5 60Z" fill="white"/>
<path d="M31.037 14.097C29.314 14.0961 27.6241 14.5704 26.1531 15.4677C24.6822 16.365 23.4872 17.6507 22.6996 19.1832C21.9121 20.7157 21.5625 22.4358 21.6892 24.1541C21.8159 25.8725 22.4142 27.5227 23.418 28.923L30.318 39.692C30.3951 39.8124 30.5012 39.9114 30.6266 39.98C30.752 40.0486 30.8926 40.0846 31.0355 40.0846C31.1785 40.0846 31.3191 40.0486 31.4445 39.98C31.5699 39.9114 31.676 39.8124 31.753 39.692L38.684 28.886C39.6771 27.4834 40.2654 25.8347 40.3846 24.1203C40.5038 22.4058 40.1494 20.6916 39.36 19.165C38.5707 17.6384 37.3768 16.3582 35.9089 15.4644C34.441 14.5706 32.7556 14.0976 31.037 14.097ZM31.037 27.73C30.1945 27.73 29.3709 27.4802 28.6703 27.0121C27.9698 26.544 27.4237 25.8787 27.1013 25.1003C26.7789 24.3219 26.6945 23.4653 26.8589 22.639C27.0233 21.8126 27.429 21.0535 28.0248 20.4578C28.6205 19.862 29.3796 19.4563 30.206 19.2919C31.0323 19.1275 31.8889 19.2119 32.6673 19.5343C33.4457 19.8567 34.111 20.4028 34.5791 21.1033C35.0472 21.8039 35.297 22.6275 35.297 23.47C35.2957 24.5995 34.8465 25.6822 34.0479 26.4809C33.2492 27.2795 32.1665 27.7287 31.037 27.73Z" fill="#CC0201"/>
<path d="M37.698 33.6771L33.408 40.3821C33.1531 40.7795 32.8023 41.1064 32.388 41.3329C31.9737 41.5593 31.5092 41.6779 31.037 41.6779C30.5649 41.6779 30.1003 41.5593 29.686 41.3329C29.2717 41.1064 28.921 40.7795 28.666 40.3821L24.366 33.6741C20.585 34.5481 18.254 36.1501 18.254 38.0641C18.254 41.3851 24.839 43.1761 31.035 43.1761C37.231 43.1761 43.816 41.3841 43.816 38.0641C43.818 36.1531 41.484 34.5511 37.698 33.6771Z" fill="#CC0201"/>
</svg>
