<svg width="75" height="60" viewBox="0 0 75 60" fill="none" xmlns="http://www.w3.org/2000/svg">
<path d="M6.5979 46.1936V52.9568H2.64282V33.7615H10.1311C11.5725 33.7615 12.8381 34.0251 13.928 34.5525C15.0266 35.0798 15.8704 35.8313 16.4592 36.8069C17.0481 37.7737 17.3425 38.8767 17.3425 40.116C17.3425 41.9968 16.6965 43.4822 15.4045 44.572C14.1213 45.6531 12.3416 46.1936 10.0652 46.1936H6.5979ZM6.5979 42.99H10.1311C11.177 42.99 11.9724 42.7439 12.5173 42.2517C13.071 41.7595 13.3479 41.0564 13.3479 40.1423C13.3479 39.2019 13.071 38.4417 12.5173 37.8616C11.9636 37.2815 11.199 36.9827 10.2234 36.9651H6.5979V42.99ZM27.8367 42.2649C27.3181 42.1946 26.8611 42.1594 26.4656 42.1594C25.0242 42.1594 24.0793 42.6472 23.6311 43.6228V52.9568H19.821V38.6921H23.4202L23.5256 40.3928C24.2903 39.0833 25.3494 38.4285 26.7029 38.4285C27.1248 38.4285 27.5203 38.4856 27.8894 38.5999L27.8367 42.2649ZM33.7034 52.9568H29.8801V38.6921H33.7034V52.9568ZM29.656 35.0007C29.656 34.4294 29.845 33.9592 30.2229 33.5901C30.6096 33.2209 31.1326 33.0364 31.7917 33.0364C32.4421 33.0364 32.9607 33.2209 33.3474 33.5901C33.7341 33.9592 33.9275 34.4294 33.9275 35.0007C33.9275 35.5808 33.7297 36.0554 33.3342 36.4246C32.9475 36.7937 32.4333 36.9783 31.7917 36.9783C31.1501 36.9783 30.6316 36.7937 30.2361 36.4246C29.8494 36.0554 29.656 35.5808 29.656 35.0007ZM40.427 38.6921L40.5457 40.2874C41.5564 39.0481 42.9231 38.4285 44.6458 38.4285C46.4827 38.4285 47.7439 39.1536 48.4294 40.6038C49.4314 39.1536 50.8596 38.4285 52.7141 38.4285C54.261 38.4285 55.4124 38.8811 56.1682 39.7864C56.9241 40.6829 57.302 42.0364 57.302 43.8469V52.9568H53.4788V43.8601C53.4788 43.0515 53.3206 42.4626 53.0042 42.0935C52.6877 41.7156 52.1296 41.5266 51.3298 41.5266C50.1873 41.5266 49.3962 42.0715 48.9568 43.1614L48.97 52.9568H45.1599V43.8733C45.1599 43.0471 44.9973 42.4495 44.6721 42.0803C44.3469 41.7112 43.7932 41.5266 43.011 41.5266C41.9299 41.5266 41.1477 41.9749 40.6643 42.8713V52.9568H36.8542V38.6921H40.427ZM59.6487 45.6926C59.6487 44.2776 59.9211 43.0164 60.4661 41.9089C61.011 40.8015 61.7932 39.9446 62.8127 39.3381C63.8411 38.7317 65.032 38.4285 66.3855 38.4285C68.3103 38.4285 69.8792 39.0173 71.092 40.1951C72.3137 41.3728 72.9949 42.9724 73.1355 44.9939L73.1619 45.9695C73.1619 48.158 72.551 49.9158 71.3293 51.2429C70.1077 52.5613 68.4685 53.2205 66.4119 53.2205C64.3552 53.2205 62.7117 52.5613 61.4812 51.2429C60.2595 49.9246 59.6487 48.1316 59.6487 45.864V45.6926ZM63.4587 45.9695C63.4587 47.323 63.7136 48.3601 64.2234 49.0808C64.7332 49.7927 65.4626 50.1487 66.4119 50.1487C67.3347 50.1487 68.0554 49.7971 68.574 49.094C69.0925 48.3821 69.3518 47.2483 69.3518 45.6926C69.3518 44.3655 69.0925 43.3372 68.574 42.6077C68.0554 41.8782 67.3259 41.5134 66.3855 41.5134C65.4539 41.5134 64.7332 41.8782 64.2234 42.6077C63.7136 43.3284 63.4587 44.449 63.4587 45.9695Z" fill="#CC0201"/>
<path d="M37.0379 0.652832C45.1629 0.652832 51.7489 6.93083 51.7489 14.6748C51.7489 22.4188 45.1629 28.6978 37.0379 28.6978C28.9129 28.6978 22.3269 22.4198 22.3269 14.6748C22.3269 6.92983 28.9139 0.652832 37.0379 0.652832Z" fill="#CC0201"/>
<path d="M39.1209 6.08371C37.4422 5.69968 35.6797 5.9975 34.2204 6.91178C32.7611 7.82606 31.7242 9.28207 31.3374 10.9601L31.1123 12.1185L29.1236 22.1452L28.8986 23.3026C30.5564 23.6799 32.2961 23.394 33.7459 22.5059C35.1958 21.6179 36.2409 20.1981 36.658 18.5498L39.1209 6.08371Z" fill="white"/>
<path d="M39.6647 8.47448L39.6903 8.47944C40.8552 8.70938 41.881 9.39267 42.5421 10.379C43.2032 11.3653 43.4455 12.5738 43.2155 13.7387C42.9856 14.9036 42.3023 15.9295 41.316 16.5906C40.3297 17.2517 39.1211 17.4939 37.9562 17.264L37.9307 17.259L37.4978 19.4547L37.5223 19.4595C39.2602 19.7812 41.0549 19.4049 42.5171 18.4121C43.9794 17.4194 44.9913 15.8903 45.3336 14.1563C45.6759 12.4224 45.3209 10.6234 44.3455 9.14947C43.3702 7.67555 41.8531 6.64552 40.1234 6.28272L40.0988 6.27795L39.6647 8.47448Z" fill="white"/>
<path d="M39.4989 9.63703C40.2754 9.7904 40.9592 10.2459 41.3999 10.9033C41.8406 11.5608 42.0022 12.3663 41.8491 13.1429C41.7733 13.5275 41.6224 13.8934 41.4052 14.2197C41.188 14.546 40.9086 14.8263 40.583 15.0446C40.2575 15.263 39.8921 15.415 39.5077 15.4921C39.1234 15.5693 38.7276 15.5699 38.343 15.4941L39.4989 9.63703Z" fill="white"/>
</svg>
