<svg width="62" height="60" viewBox="0 0 62 60" fill="none" xmlns="http://www.w3.org/2000/svg">
<path d="M31.001 60C48.1218 60 62.001 46.5685 62.001 30C62.001 13.4315 48.1218 0 31.001 0C13.8801 0 0.000976562 13.4315 0.000976562 30C0.000976562 46.5685 13.8801 60 31.001 60Z" fill="#D65F5E"/>
<path d="M37.408 32.675C36.9075 32.6742 36.4156 32.5443 35.9798 32.2981C35.544 32.0518 35.179 31.6974 34.92 31.269L31.056 24.862L27.198 31.269C26.9385 31.6987 26.5728 32.0543 26.136 32.3016C25.6991 32.549 25.206 32.6796 24.704 32.681C24.4332 32.6824 24.1637 32.644 23.904 32.567L15.671 30.211V40.911C15.6704 41.3393 15.8133 41.7555 16.0768 42.0932C16.3403 42.4309 16.7094 42.6706 17.125 42.774L30.118 46.025C30.7299 46.1752 31.3691 46.1752 31.981 46.025L44.986 42.774C45.4008 42.669 45.7689 42.4289 46.0321 42.0916C46.2954 41.7542 46.4389 41.3389 46.44 40.911V30.211L38.206 32.561C37.947 32.6378 37.6782 32.6762 37.408 32.675ZM50.185 25.932L47.085 19.754C46.9941 19.5724 46.8492 19.4234 46.6701 19.3276C46.491 19.2317 46.2866 19.1938 46.085 19.219L31.056 21.136L36.564 30.278C36.676 30.4626 36.8453 30.6055 37.0461 30.6848C37.2469 30.7641 37.4682 30.7754 37.676 30.717L49.57 27.317C49.709 27.2768 49.8374 27.2066 49.9463 27.1114C50.0552 27.0162 50.1419 26.8983 50.2003 26.766C50.2588 26.6337 50.2875 26.4902 50.2845 26.3456C50.2815 26.201 50.2469 26.0588 50.183 25.929L50.185 25.932ZM15.021 19.754L11.921 25.932C11.8564 26.0608 11.8209 26.2024 11.8172 26.3465C11.8135 26.4906 11.8417 26.6337 11.8996 26.7657C11.9576 26.8977 12.044 27.0153 12.1526 27.11C12.2612 27.2048 12.3894 27.2745 12.528 27.314L24.422 30.714C24.6299 30.7724 24.8511 30.7611 25.052 30.6818C25.2528 30.6025 25.4221 30.4596 25.534 30.275L31.051 21.14L16.019 19.219C15.8175 19.1938 15.6131 19.2317 15.434 19.3276C15.2549 19.4234 15.1099 19.5724 15.019 19.754H15.021Z" fill="white"/>
</svg>
