<svg width="46" height="46" viewBox="0 0 46 46" fill="none" xmlns="http://www.w3.org/2000/svg">
<path d="M45.248 27.9539H40.859L36.793 26.6009L35.473 23.3009V20.8109C35.4705 19.9802 35.1617 19.1796 34.6058 18.5623C34.0499 17.945 33.2859 17.5543 32.46 17.4649C32.46 17.3649 32.465 17.2589 32.465 17.1559V6.14794C32.465 5.98626 32.4128 5.8289 32.3162 5.6992C32.2197 5.56951 32.0839 5.47439 31.929 5.42794L16.89 0.916943C16.7491 0.874691 16.5989 0.874691 16.458 0.916943L1.42003 5.42794C1.26516 5.47439 1.12938 5.56951 1.03283 5.6992C0.936278 5.8289 0.8841 5.98626 0.884033 6.14794V17.1559C0.884033 17.5049 0.907033 17.8489 0.920033 18.1959C0.939033 18.7039 0.967033 19.2079 1.01203 19.7099C1.02003 19.7959 1.03003 19.8759 1.03803 19.9599C1.49222 24.6561 3.13526 29.1592 5.81217 33.0444C8.48908 36.9296 12.1116 40.0688 16.338 42.1659C16.4424 42.2181 16.5574 42.2452 16.674 42.2452C16.7907 42.2452 16.9057 42.2181 17.01 42.1659C18.135 41.6014 19.2208 40.962 20.26 40.2519C20.496 40.577 20.7941 40.852 21.137 41.0609C20.7697 41.4993 20.5349 42.0333 20.4603 42.6004C20.3856 43.1675 20.4742 43.7441 20.7156 44.2626C20.957 44.7811 21.3413 45.22 21.8233 45.5279C22.3053 45.8358 22.8651 45.9999 23.437 46.0009H36.224C36.3724 46.0008 36.5174 45.9569 36.641 45.8749L40.961 42.9939H45.247C45.3458 42.9939 45.4436 42.9745 45.5348 42.9367C45.626 42.8989 45.709 42.8435 45.7788 42.7737C45.8486 42.7039 45.904 42.621 45.9418 42.5297C45.9796 42.4385 45.999 42.3407 45.999 42.2419V28.7059C45.999 28.5067 45.9199 28.3155 45.7791 28.1746C45.6383 28.0336 45.4473 27.9542 45.248 27.9539ZM28.974 24.2599L29.851 26.4499H25.484C27.0797 23.5851 27.9272 20.3641 27.948 17.0849L30.961 16.1849V17.1589C30.961 17.3199 30.956 17.4799 30.953 17.6409C30.2971 17.8738 29.7291 18.3036 29.3267 18.8715C28.9243 19.4395 28.7072 20.1179 28.705 20.8139V22.8659C28.7041 23.3454 28.7951 23.8207 28.973 24.2659L28.974 24.2599ZM18.174 29.4599C18.1747 30.2283 18.4708 30.9669 19.001 31.5229C18.722 31.7229 18.448 31.9369 18.16 32.1229L16.67 33.0759L15.184 32.1199C11.8497 29.9826 9.31443 26.8041 7.97203 23.0779L26.424 17.5419C26.3212 20.6967 25.39 23.7689 23.724 26.4499H21.184C20.3866 26.4505 19.622 26.7676 19.0583 27.3317C18.4947 27.8957 18.178 28.6605 18.178 29.4579L18.174 29.4599ZM2.79603 21.7409C2.79003 21.7029 2.78303 21.6659 2.77703 21.6299L5.76503 20.7359C5.85403 21.1869 5.96503 21.6359 6.08203 22.0789L3.05103 22.9889C2.95203 22.5569 2.87003 22.1459 2.79603 21.7409ZM2.44903 18.7209L5.42303 17.8279C5.44403 18.2989 5.47903 18.7679 5.53303 19.2279L2.56603 20.1179C2.55803 20.0499 2.55203 19.9829 2.54503 19.9179C2.50703 19.5329 2.47203 19.1389 2.45003 18.7209H2.44903ZM26.449 9.95094L6.89903 15.8149V10.4379L16.699 6.93794L26.448 9.72294L26.449 9.95094ZM26.449 11.5209V12.9589L7.00203 18.7919C6.9547 18.3253 6.92503 17.8549 6.91303 17.3809L26.449 11.5209ZM30.961 13.1749V14.6129L27.953 15.5129V14.0769L30.961 13.1749ZM30.961 11.6049L27.953 12.5049V11.0689L30.961 10.1689V11.6049ZM7.21203 20.2989L19.447 16.6289L26.447 14.5289V15.9669L7.52203 21.6439C7.40303 21.1999 7.29703 20.7529 7.21203 20.2989ZM2.38403 6.70794L16.674 2.42194L30.961 6.70794V8.59694L27.953 9.49694V9.15394C27.953 8.99059 27.8999 8.83168 27.8015 8.70123C27.7032 8.57079 27.5651 8.47591 27.408 8.43094L16.884 5.42594C16.7334 5.38209 16.5727 5.38699 16.425 5.43994L5.89503 9.19994C5.74883 9.25194 5.62229 9.3479 5.53277 9.47466C5.44325 9.60142 5.39514 9.75276 5.39503 9.90794V16.2659L2.38703 17.1659L2.38403 6.70794ZM16.674 40.6449C13.47 38.999 10.6383 36.7121 8.35492 33.9262C6.0715 31.1403 4.38498 27.9148 3.40003 24.4499L6.53303 23.5099C7.97887 27.5803 10.7373 31.0542 14.374 33.3849L16.268 34.6019C16.3894 34.6801 16.5307 34.7216 16.675 34.7216C16.8194 34.7216 16.9607 34.6801 17.082 34.6019L18.975 33.3849L18.995 33.3719C18.8654 33.9799 18.9297 34.6133 19.1789 35.1828C19.428 35.7524 19.8495 36.2295 20.384 36.5469C19.9292 37.09 19.6812 37.7766 19.684 38.4849C19.6853 38.5896 19.6923 38.6941 19.705 38.7979C18.7371 39.4807 17.7245 40.0977 16.674 40.6449ZM35.998 44.4959H23.442C23.0598 44.489 22.6947 44.3364 22.4212 44.0693C22.1478 43.8022 21.9866 43.4407 21.9706 43.0588C21.9547 42.6769 22.0851 42.3033 22.3354 42.0143C22.5856 41.7253 22.9367 41.5428 23.317 41.5039C23.5122 41.4837 23.6922 41.3896 23.8202 41.2408C23.9481 41.092 24.0143 40.8999 24.005 40.7039C23.9975 40.5096 23.915 40.3257 23.7748 40.1908C23.6346 40.056 23.4476 39.9808 23.253 39.9809H22.69C22.2911 39.9809 21.9086 39.8225 21.6265 39.5404C21.3445 39.2584 21.186 38.8758 21.186 38.4769C21.186 38.0781 21.3445 37.6955 21.6265 37.4135C21.9086 37.1314 22.2911 36.9729 22.69 36.9729C22.7931 36.9805 22.8967 36.9667 22.9942 36.9324C23.0917 36.8981 23.1811 36.8441 23.2568 36.7737C23.3326 36.7033 23.3929 36.6181 23.4342 36.5233C23.4755 36.4286 23.4968 36.3263 23.4968 36.2229C23.4968 36.1196 23.4755 36.0173 23.4342 35.9225C23.3929 35.8278 23.3326 35.7425 23.2568 35.6722C23.1811 35.6018 23.0917 35.5478 22.9942 35.5135C22.8967 35.4792 22.7931 35.4654 22.69 35.4729H21.938C21.5391 35.4729 21.1566 35.3145 20.8745 35.0324C20.5925 34.7504 20.434 34.3678 20.434 33.9689C20.434 33.5701 20.5925 33.1875 20.8745 32.9055C21.1566 32.6234 21.5391 32.4649 21.938 32.4649C22.0411 32.4725 22.1447 32.4587 22.2422 32.4244C22.3397 32.3901 22.4291 32.3361 22.5048 32.2657C22.5806 32.1953 22.6409 32.1101 22.6822 32.0153C22.7235 31.9206 22.7448 31.8183 22.7448 31.7149C22.7448 31.6116 22.7235 31.5093 22.6822 31.4145C22.6409 31.3198 22.5806 31.2345 22.5048 31.1642C22.4291 31.0938 22.3397 31.0398 22.2422 31.0055C22.1447 30.9712 22.0411 30.9574 21.938 30.9649H21.184C20.7851 30.9649 20.4026 30.8065 20.1205 30.5244C19.8385 30.2424 19.68 29.8598 19.68 29.4609C19.68 29.0621 19.8385 28.6795 20.1205 28.3975C20.4026 28.1154 20.7851 27.9569 21.184 27.9569H30.959C31.0822 27.9573 31.2035 27.9274 31.3124 27.8699C31.4212 27.8123 31.5143 27.729 31.5834 27.6271C31.6526 27.5252 31.6956 27.4079 31.7088 27.2854C31.722 27.163 31.7049 27.0392 31.659 26.9249L30.37 23.7039C30.2628 23.4376 30.2078 23.1531 30.208 22.8659V20.8109C30.208 20.3123 30.4061 19.8342 30.7587 19.4816C31.1112 19.129 31.5894 18.9309 32.088 18.9309C32.5866 18.9309 33.0648 19.129 33.4174 19.4816C33.77 19.8342 33.968 20.3123 33.968 20.8109V23.4429C33.9679 23.5388 33.9859 23.6338 34.021 23.7229L35.521 27.4829C35.5619 27.5843 35.6243 27.6756 35.7039 27.7505C35.7835 27.8255 35.8784 27.8822 35.982 27.9169L39.982 29.2489V41.8389L35.998 44.4959ZM44.498 41.4879H41.484V29.4579H44.492L44.498 41.4879ZM40.45 10.5399L39.422 11.6399C39.7652 11.9614 40.0879 12.304 40.388 12.6659L41.544 11.7039C41.2036 11.2942 40.8379 10.9061 40.449 10.5419L40.45 10.5399ZM44.495 19.8709C44.495 19.5763 44.485 19.2843 44.465 18.9949L42.965 19.0949C42.9824 19.3503 42.991 19.6083 42.991 19.8689C42.991 20.0819 42.985 20.2939 42.973 20.5039L44.473 20.5899C44.4884 20.3519 44.496 20.1119 44.496 19.8699L44.495 19.8709ZM39.221 9.52394C38.7899 9.21058 38.3397 8.92436 37.873 8.66694L37.147 9.98494C37.5586 10.2107 37.9557 10.4618 38.336 10.7369L39.221 9.52394Z" fill="#CC0201"/>
<path d="M44.288 22.175L42.813 21.906C42.7294 22.368 42.6165 22.8243 42.475 23.272L43.908 23.723C44.0672 23.2155 44.1941 22.6985 44.288 22.175ZM36.427 7.98499C35.9313 7.78814 35.4236 7.62281 34.907 7.48999L34.531 8.94599C34.9863 9.06336 35.4339 9.20897 35.871 9.38199L36.427 7.98499ZM41.581 25.334L42.897 26.063C43.047 25.787 43.197 25.504 43.326 25.215L41.961 24.586C41.8464 24.8407 41.72 25.09 41.582 25.334H41.581ZM41.22 13.8C41.4729 14.1955 41.701 14.6063 41.903 15.03L43.261 14.385C43.0327 13.9025 42.7742 13.435 42.487 12.985L41.22 13.8ZM42.427 16.336C42.5736 16.7822 42.6922 17.237 42.782 17.698L44.258 17.412C44.1575 16.8887 44.0239 16.3724 43.858 15.866L42.427 16.336ZM34.713 15.226C35.6057 15.5797 36.371 16.194 36.9094 16.9891C37.4477 17.7841 37.734 18.7229 37.731 19.683H39.231C39.2354 18.4219 38.8596 17.1889 38.1527 16.1446C37.4458 15.1003 36.4405 14.2934 35.268 13.829L35 13.721L34.441 15.121L34.713 15.226Z" fill="#CC0201"/>
</svg>
