<svg width="66" height="50" viewBox="0 0 66 50" fill="none" xmlns="http://www.w3.org/2000/svg">
<path d="M32.952 4.17392C37.8815 2.43091 43.2638 2.45609 48.1769 4.24516C53.0899 6.03423 57.2281 9.47586 59.8826 13.9806C62.5371 18.4853 63.5428 23.7728 62.7274 28.9375C61.912 34.1022 59.3263 38.8227 55.413 42.2905C51.4998 45.7584 46.5026 47.7577 41.2774 47.9461C36.0521 48.1346 30.9239 46.5003 26.7711 43.3234C22.6182 40.1465 19.6992 35.6245 18.5139 30.5319C17.3286 25.4394 17.9508 20.0931 20.274 15.4089" stroke="#666666" stroke-width="4" stroke-miterlimit="10" stroke-linecap="round"/>
<path d="M42.461 10.4589C44.5901 10.7399 46.6348 11.4715 48.459 12.6049C50.2831 13.7382 51.8448 15.2474 53.0398 17.0317C54.2349 18.816 55.036 20.8345 55.3897 22.9528C55.7434 25.071 55.6416 27.2403 55.0911 29.3161C54.5406 31.3919 53.554 33.3265 52.197 34.991C50.8401 36.6556 49.144 38.0118 47.2217 38.9694C45.2995 39.927 43.1952 40.4638 41.0492 40.5443C38.9031 40.6247 36.7645 40.2468 34.776 39.4359" stroke="#666666" stroke-width="4" stroke-miterlimit="10" stroke-linecap="round"/>
<path d="M40.674 27.9659C42.1713 27.9659 43.385 26.7522 43.385 25.2549C43.385 23.7577 42.1713 22.5439 40.674 22.5439C39.1768 22.5439 37.963 23.7577 37.963 25.2549C37.963 26.7522 39.1768 27.9659 40.674 27.9659Z" stroke="#666666" stroke-width="4" stroke-miterlimit="10"/>
<path d="M38.5209 27.387L28.7999 38.004" stroke="#666666" stroke-width="4" stroke-miterlimit="10" stroke-linecap="round"/>
<path d="M36.281 10.0309H34.021" stroke="#666666" stroke-width="4" stroke-miterlimit="10" stroke-linecap="round"/>
<path d="M28.695 10.0309H13.473" stroke="#666666" stroke-width="4" stroke-miterlimit="10" stroke-linecap="round" stroke-dasharray="35.37 35.37"/>
<path d="M8.759 10.0309H6.5" stroke="#666666" stroke-width="4" stroke-miterlimit="10" stroke-linecap="round"/>
<path d="M13.43 4.17395H2.90198" stroke="#666666" stroke-width="4" stroke-miterlimit="10" stroke-linecap="round"/>
<path d="M26.666 4.17395H20.704" stroke="#666666" stroke-width="4" stroke-miterlimit="10" stroke-linecap="round"/>
</svg>
