<svg width="56" height="20" viewBox="0 0 56 20" fill="none" xmlns="http://www.w3.org/2000/svg">
<path d="M47 -0.000976562H9C4.02944 -0.000976562 0 4.02846 0 8.99902V10.999C0 15.9696 4.02944 19.999 9 19.999H47C51.9706 19.999 56 15.9696 56 10.999V8.99902C56 4.02846 51.9706 -0.000976562 47 -0.000976562Z" fill="white"/>
<path d="M47 0.499023H9C4.30558 0.499023 0.5 4.3046 0.5 8.99902V10.999C0.5 15.6934 4.30558 19.499 9 19.499H47C51.6944 19.499 55.5 15.6934 55.5 10.999V8.99902C55.5 4.3046 51.6944 0.499023 47 0.499023Z" stroke="#E6E6E6"/>
<path d="M40 17.999C44.4183 17.999 48 14.4173 48 9.99902C48 5.58075 44.4183 1.99902 40 1.99902C35.5817 1.99902 32 5.58075 32 9.99902C32 14.4173 35.5817 17.999 40 17.999Z" fill="#CC0201"/>
</svg>

