<svg width="55" height="49" viewBox="0 0 55 49" fill="none" xmlns="http://www.w3.org/2000/svg">
<path fill-rule="evenodd" clip-rule="evenodd" d="M22.8561 0.43103H22.8451C22.8131 0.435764 22.7814 0.442087 22.7501 0.450012C22.6723 0.462029 22.5964 0.483872 22.5241 0.515015L0.924104 9.75104C0.704435 9.78751 0.505023 9.90119 0.361822 10.0717C0.21862 10.2422 0.141053 10.4583 0.143106 10.681V38.704C0.143129 38.7421 0.145467 38.7802 0.150106 38.8181C0.150106 38.8241 0.150106 38.831 0.150106 38.837C0.150106 38.843 0.157104 38.8761 0.161104 38.8951C0.188649 39.0499 0.25489 39.1952 0.35367 39.3176C0.45245 39.4399 0.580564 39.5354 0.726106 39.595L22.5181 48.9161C22.5584 48.9326 22.5999 48.9462 22.6421 48.957C22.698 48.9726 22.7553 48.9829 22.8131 48.988H22.8461C22.8701 48.988 22.8951 48.988 22.9191 48.988H23.0141C23.0447 48.9832 23.0751 48.9769 23.1051 48.9691C23.1688 48.9576 23.2311 48.9394 23.2911 48.915L35.4201 43.7241C36.3103 45.3204 37.6102 46.6503 39.1857 47.5768C40.7612 48.5034 42.5554 48.993 44.3831 48.9951C47.1062 48.9911 49.7166 47.9075 51.6421 45.982C53.5676 44.0565 54.6511 41.446 54.6551 38.723C54.6509 36.2233 53.736 33.811 52.0817 31.9371C50.4273 30.0632 48.1469 28.8562 45.6671 28.5421V10.6821C45.6697 10.4571 45.591 10.2387 45.4455 10.0671C45.3 9.89548 45.0975 9.78218 44.8751 9.74799L23.2911 0.515015C23.2133 0.4811 23.1312 0.457919 23.0471 0.446045H23.0211C22.9981 0.446045 22.9751 0.446045 22.9521 0.446045C22.9188 0.44422 22.8854 0.44422 22.8521 0.446045L22.8561 0.43103ZM22.9071 2.37903L27.4851 4.33405L8.0851 12.634L8.0301 12.66L3.4521 10.701L22.9101 2.38L22.9071 2.37903ZM29.8601 5.35205L35.4161 7.73102L15.6451 16.1821C15.4244 16.2661 15.2437 16.4306 15.1395 16.6425C15.0352 16.8544 15.0151 17.0979 15.0831 17.324V27.2241L13.0581 24.189C12.9318 23.9982 12.7398 23.8604 12.5186 23.8018C12.2974 23.7432 12.0624 23.7678 11.8581 23.871L9.47611 25.06V14.06L29.8531 5.34503L29.8601 5.35205ZM37.7831 8.74103L42.3651 10.7L22.9071 19.024L18.3291 17.065L37.7291 8.76508L37.7801 8.73907L37.7831 8.74103ZM2.01211 12.1191L7.6121 14.519V26.582C7.61226 26.7408 7.65293 26.8971 7.73027 27.0358C7.80761 27.1746 7.91907 27.2914 8.05411 27.3751C8.18923 27.4586 8.34345 27.5063 8.50216 27.5136C8.66087 27.521 8.81883 27.4878 8.96111 27.4171L11.9611 25.9171L15.1891 30.758C15.2756 30.9254 15.4107 31.0628 15.5767 31.152C15.7427 31.2413 15.9317 31.2782 16.1191 31.258C16.1528 31.2535 16.1861 31.2472 16.2191 31.2391H16.2481L16.3101 31.221C16.3985 31.1922 16.482 31.1504 16.5581 31.097C16.6986 30.9995 16.8096 30.8654 16.8791 30.7092C16.9486 30.5529 16.9738 30.3806 16.9521 30.211V18.511L21.9711 20.6561V46.647L2.01011 38.107V12.1201L2.01211 12.1191ZM43.8021 12.1191V28.476C41.6168 28.6042 39.5295 29.4266 37.844 30.8234C36.1585 32.2202 34.9628 34.1185 34.4311 36.242L31.7311 37.394L26.2851 39.721C26.1723 39.7692 26.0701 39.8391 25.9843 39.9268C25.8985 40.0145 25.8308 40.1183 25.7851 40.2321C25.7395 40.346 25.7166 40.4677 25.718 40.5904C25.7194 40.7131 25.7449 40.8342 25.7931 40.947C25.8413 41.0598 25.9112 41.1621 25.9989 41.2479C26.0866 41.3336 26.1903 41.4013 26.3042 41.447C26.418 41.4926 26.5398 41.5155 26.6624 41.5141C26.7851 41.5127 26.9063 41.4872 27.0191 41.439L32.4651 39.108L34.1281 38.397C34.1281 38.505 34.1101 38.6091 34.1101 38.7181C34.1125 39.8391 34.2997 40.9519 34.6641 42.012L23.8371 46.6451V20.659L43.7981 12.123L43.8021 12.1191ZM44.3861 30.319C45.4896 30.3177 46.5825 30.5341 47.6022 30.9557C48.6219 31.3774 49.5485 31.9962 50.3287 32.7764C51.109 33.5567 51.7277 34.4831 52.1494 35.5029C52.571 36.5226 52.7874 37.6156 52.7861 38.7191C52.7874 39.8225 52.571 40.9154 52.1494 41.9351C51.7277 42.9548 51.109 43.8814 50.3287 44.6617C49.5485 45.442 48.6219 46.0606 47.6022 46.4822C46.5825 46.9039 45.4896 47.1204 44.3861 47.1191C43.2826 47.1204 42.1897 46.9039 41.17 46.4822C40.1503 46.0606 39.2237 45.442 38.4435 44.6617C37.6632 43.8814 37.0445 42.9548 36.6228 41.9351C36.2012 40.9154 35.9848 39.8225 35.9861 38.7191C35.9841 37.6152 36.2 36.5217 36.6214 35.5014C37.0428 34.4811 37.6614 33.5539 38.4417 32.7731C39.222 31.9923 40.1488 31.3732 41.1688 30.9512C42.1889 30.5292 43.2822 30.3127 44.3861 30.314V30.319ZM43.4521 31.33V36.554C43.0277 36.7373 42.6658 37.0402 42.4106 37.4257C42.1554 37.8112 42.018 38.2627 42.0151 38.725C42.019 39.3526 42.2701 39.9535 42.7139 40.3973C43.1577 40.8411 43.7585 41.0921 44.3861 41.096C44.8488 41.0929 45.3005 40.9555 45.6865 40.7004C46.0725 40.4453 46.376 40.0834 46.5601 39.659H50.3451V37.7911H46.5601C46.3166 37.2378 45.874 36.7962 45.3201 36.554V31.33H43.4521ZM32.0711 33.592C31.9551 33.5976 31.8412 33.6248 31.7351 33.6721L26.2891 36.003C26.1763 36.0512 26.0741 36.1211 25.9883 36.2088C25.9025 36.2965 25.8348 36.4002 25.7891 36.5141C25.7435 36.6279 25.7206 36.7497 25.722 36.8724C25.7234 36.995 25.7489 37.1163 25.7971 37.2291C25.8453 37.3419 25.9152 37.4441 26.0029 37.5298C26.0906 37.6156 26.1943 37.6833 26.3082 37.7289C26.422 37.7746 26.5438 37.7974 26.6664 37.7961C26.7891 37.7947 26.9103 37.7692 27.0231 37.721L32.4691 35.3901C32.6736 35.3071 32.8421 35.1545 32.9448 34.9592C33.0475 34.7639 33.0777 34.5385 33.0301 34.3231C32.9824 34.1075 32.8599 33.9159 32.6844 33.782C32.5088 33.6482 32.2916 33.5809 32.0711 33.592ZM44.3861 38.221C44.4521 38.2196 44.5178 38.2316 44.579 38.2563C44.6403 38.2809 44.696 38.3177 44.7427 38.3644C44.7894 38.4111 44.8262 38.4669 44.8508 38.5281C44.8755 38.5894 44.8875 38.655 44.8861 38.721C44.8873 38.787 44.8752 38.8525 44.8505 38.9138C44.8258 38.975 44.7891 39.0307 44.7424 39.0773C44.6957 39.124 44.6401 39.1608 44.5789 39.1855C44.5177 39.2102 44.4521 39.2222 44.3861 39.221C44.3201 39.2224 44.2544 39.2104 44.1932 39.1857C44.1319 39.1611 44.0762 39.1243 44.0295 39.0776C43.9828 39.0309 43.946 38.9753 43.9214 38.914C43.8967 38.8527 43.8847 38.787 43.8861 38.721C43.8841 38.6546 43.8955 38.5884 43.9199 38.5266C43.9442 38.4647 43.9809 38.4084 44.0277 38.3611C44.0744 38.3139 44.1303 38.2767 44.192 38.2518C44.2536 38.2268 44.3196 38.2146 44.3861 38.216V38.221Z" fill="#666666"/>
</svg>
