<svg width="48" height="48" viewBox="0 0 48 48" fill="none" xmlns="http://www.w3.org/2000/svg">
<path d="M38.777 9.22294C38.777 9.58824 38.6687 9.94534 38.4657 10.2491C38.2628 10.5528 37.9743 10.7896 37.6368 10.9293C37.2993 11.0691 36.928 11.1057 36.5697 11.0345C36.2114 10.9632 35.8823 10.7873 35.624 10.529C35.3657 10.2707 35.1898 9.94156 35.1185 9.58327C35.0472 9.22499 35.0838 8.85362 35.2236 8.51613C35.3634 8.17863 35.6001 7.89017 35.9039 7.68722C36.2076 7.48427 36.5647 7.37594 36.93 7.37594C37.4199 7.37594 37.8896 7.57054 38.236 7.91692C38.5824 8.2633 38.777 8.73309 38.777 9.22294ZM44.427 19.3599L36.931 34.5949L29.431 19.3609C25.39 11.5679 25.3 7.04394 29.1 3.23994C31.1773 1.165 33.9934 -0.000488281 36.9295 -0.000488281C39.8656 -0.000488281 42.6817 1.165 44.759 3.23994C48.564 7.04394 48.471 11.5679 44.428 19.3609L44.427 19.3599ZM42.359 10.3119C42.5935 9.14577 42.4465 7.93507 41.9396 6.85895C41.4327 5.78283 40.5929 4.89844 39.5444 4.3366C38.496 3.77475 37.2945 3.5653 36.1177 3.73922C34.941 3.91314 33.8515 4.46119 33.0104 5.30231C32.1692 6.14343 31.6212 7.23295 31.4473 8.40969C31.2734 9.58643 31.4828 10.7879 32.0447 11.8364C32.6065 12.8848 33.4909 13.7246 34.567 14.2315C35.6431 14.7384 36.8538 14.8855 38.02 14.6509C39.0903 14.4357 40.0731 13.909 40.8451 13.1371C41.6171 12.3651 42.1438 11.3822 42.359 10.3119ZM35.084 40.6119V44.3049H27.7V47.9979H38.777V40.6139L35.084 40.6119ZM9.233 44.3069V47.9999H24V44.3069H9.233ZM3.693 36.9209H0V47.9999H5.54V44.3069H3.693V36.9209ZM3.693 33.2279V18.4559H0V33.2279H3.693ZM3.693 7.37694H9.233V3.68394H0V14.7629H3.693V7.37694ZM15.862 10.7559L18.462 8.13394L21.062 10.7559L23.684 8.13394L21.062 5.53394L23.684 2.93394L21.069 0.303942L18.469 2.92594L15.869 0.303942L13.24 2.92694L15.862 5.52694L13.24 8.12694L15.862 10.7559Z" fill="#CC0201"/>
</svg>
